<svg width="658" height="101" viewBox="0 0 658 101" fill="none" xmlns="http://www.w3.org/2000/svg">
<path fill-rule="evenodd" clip-rule="evenodd" d="M414.9 21.61H422.11V14.4H429.31V7.2H436.5V0H414.9V21.61Z" fill="white"/>
<path fill-rule="evenodd" clip-rule="evenodd" d="M522.94 14.4H515.74V7.2H508.53V0H458.13V7.2H450.93V14.4H443.7V21.61H436.54V79.2H443.7V86.41H450.91V93.61H458.11V100.81H508.51V93.61H515.72V86.41H522.92V79.21H530.15V21.61H522.94V14.4ZM508.55 64.81H501.35V72H494.15V79.2H472.55V72H465.35V64.8H458.14V36H465.35V28.8H472.55V21.6H494.15V28.8H501.35V36H508.55V64.81Z" fill="white"/>
<path fill-rule="evenodd" clip-rule="evenodd" d="M429.31 86.42H422.11V79.21H414.9V100.81H436.5V93.61H429.31V86.42Z" fill="white"/>
<path fill-rule="evenodd" clip-rule="evenodd" d="M650.55 86.42H643.35V93.61H636.16V100.81H657.76V79.21H650.55V86.42Z" fill="white"/>
<path fill-rule="evenodd" clip-rule="evenodd" d="M636.16 0V7.2H643.35V14.39H650.55V21.6H657.76V0H636.16Z" fill="white"/>
<path fill-rule="evenodd" clip-rule="evenodd" d="M630.93 14.4H623.73V7.2H616.53V0H558.92V7.2H551.72V14.4H544.51V21.61H544.55V50.41H551.75V57.61H566.16V64.81H609.36V72.01H602.16V79.21H573.36V72.01H566.16V64.81H544.52V86.42H551.56V93.62H558.69V100.82H616.3V93.62H623.56V86.42H630.9V57.61H623.76V50.41H616.56V43.2H573.36V36H566.16V28.81H573.36V21.61H602.16V28.81H609.36V36.01H630.97V21.61H630.93V14.4Z" fill="white"/>
<path fill-rule="evenodd" clip-rule="evenodd" d="M26.69 76.19V63.46L29.23 60.91H66.17V38.86H28.71L26.69 36.83V24.1L28.39 22.4H77.84V0.0299988H0V100.72H79.27V78.34H28.83L26.69 76.19Z" fill="white"/>
<path fill-rule="evenodd" clip-rule="evenodd" d="M112.66 76.21V0.119995H85.49V100.81H162.52V78.43H114.89L112.66 76.21Z" fill="white"/>
<path d="M195.25 0.119995H168.08V100.82H195.25V0.119995Z" fill="white"/>
<path fill-rule="evenodd" clip-rule="evenodd" d="M237.96 75.49L285.25 21.22V0.119995H201.66V22.5H248.4V25.21L201.17 80.2V100.82H286.52V78.44H237.96V75.49Z" fill="white"/>
<path fill-rule="evenodd" clip-rule="evenodd" d="M330 0.119995L289.88 100.82H317.21L324 83.14L327.16 81.32H361.76L364.67 83L371.54 100.81H400.47L360.35 0.119995H330ZM353.58 61H335.4L333.3 58.9L343.21 31.27H345.54L355.54 59.07L353.58 61Z" fill="white"/>
</svg>
