<?xml version="1.0" encoding="utf-8"?>
<!-- Generator: Adobe Illustrator 26.0.3, SVG Export Plug-In . SVG Version: 6.00 Build 0)  -->
<svg version="1.0" id="katman_1" xmlns="http://www.w3.org/2000/svg" xmlns:xlink="http://www.w3.org/1999/xlink" x="0px" y="0px"
	 viewBox="0 0 800 600" style="enable-background:new 0 0 800 600;" xml:space="preserve">
<style type="text/css">
	.st0{fill-rule:evenodd;clip-rule:evenodd;fill:#FFFFFF;}
	.st1{fill:#FFFFFF;}
</style>
<path class="st0" d="M79.9,233.6c-1.3,0-2.4,1.1-2.4,2.4v73.3c0,1.3,1.1,2.4,2.4,2.4h190.5c1.3,0,2.4-1.1,2.4-2.4v-73.3
	c0-1.3-1.1-2.4-2.4-2.4H79.9z M247.2,287.4c0.7,0,1.2-0.5,1.2-1.2v-26.9c0-0.7-0.5-1.2-1.2-1.2H103.1c-0.7,0-1.2,0.5-1.2,1.2v26.9
	c0,0.7,0.5,1.2,1.2,1.2H247.2z"/>
<path class="st1" d="M101.8,343.6c0-1.3-1.1-2.4-2.4-2.4H79.9c-1.3,0-2.4,1.1-2.4,2.4v19.5c0,1.3,1.1,2.4,2.4,2.4h19.5
	c1.3,0,2.4-1.1,2.4-2.4V343.6z"/>
<path class="st1" d="M551.3,343.6c0-1.3-1.1-2.4-2.4-2.4h-19.5c-1.3,0-2.4,1.1-2.4,2.4v19.5c0,1.3,1.1,2.4,2.4,2.4h19.5
	c1.3,0,2.4-1.1,2.4-2.4V343.6z"/>
<path class="st1" d="M302.1,343.6c0-1.3,1.1-2.4,2.4-2.4h190.5c1.3,0,2.4,1.1,2.4,2.4v19.5c0,1.3-1.1,2.4-2.4,2.4H304.6
	c-1.3,0-2.4-1.1-2.4-2.4V343.6z"/>
<path class="st0" d="M526.8,236.1c0-1.3,1.1-2.4,2.4-2.4h190.5c1.3,0,2.4,1.1,2.4,2.4v73.3c0,1.3-1.1,2.4-2.4,2.4H529.3
	c-1.3,0-2.4-1.1-2.4-2.4V236.1z M696.6,258.1c0.7,0,1.2,0.5,1.2,1.2v26.9c0,0.7-0.5,1.2-1.2,1.2H552.5c-0.7,0-1.2-0.5-1.2-1.2v-26.9
	c0-0.7,0.5-1.2,1.2-1.2H696.6z"/>
<path class="st1" d="M304.6,233.6c-1.3,0-2.4,1.1-2.4,2.4v19.5c0,1.3,1.1,2.4,2.4,2.4h167.3c0.7,0,1.2,0.5,1.2,1.2v26.9
	c0,0.7-0.5,1.2-1.2,1.2H304.6c-1.3,0-2.4,1.1-2.4,2.4v19.5c0,1.3,1.1,2.4,2.4,2.4h190.5c1.3,0,2.4-1.1,2.4-2.4v-73.3
	c0-1.3-1.1-2.4-2.4-2.4H304.6z"/>
</svg>
