<svg width="1440" height="2358" viewBox="0 0 1440 2358" fill="none" xmlns="http://www.w3.org/2000/svg">
<g opacity="0.2">
<path d="M-40 1951.22C277.467 1677.04 448.594 1315.44 547.288 1019.62C629.559 772.996 628.1 672.111 715.46 488.11C905.041 88.834 1268.2 -186.505 1444.21 156.618C1530.91 325.642 1498.84 539.84 1540.31 945.329C1577.62 1310.09 1674.08 1811.78 1943.4 2357" stroke="white" stroke-opacity="0.25" stroke-miterlimit="10"/>
<path d="M-39.3626 1862.76C269.427 1627.13 438.842 1286.94 537.484 1010.1C620.483 777.089 627.232 683.913 720.024 503.074C914.682 123.713 1255.74 -140.4 1431.99 179.756C1522.78 344.651 1502.13 555.184 1550.72 959.485C1593.5 1315.43 1691.93 1808.53 1956.6 2348.86" stroke="white" stroke-opacity="0.25" stroke-miterlimit="10"/>
<path d="M-38.7306 1774.31C261.376 1577.21 429.211 1258.37 527.693 1000.58C611.59 780.964 626.21 695.704 724.6 518.04C923.906 158.152 1243.81 -94.9069 1419.8 202.884C1514.87 363.771 1505.28 570.321 1561.15 973.629C1609.23 1320.66 1709.8 1805.25 1969.84 2340.67" stroke="white" stroke-opacity="0.25" stroke-miterlimit="10"/>
<path d="M-38.0931 1685.85C253.33 1527.28 419.751 1229.7 517.907 990.981C602.812 784.603 625.027 707.407 729.205 533.015C932.763 192.098 1232.41 -50.1029 1407.62 226.02C1507.17 382.888 1508.29 585.283 1571.6 987.783C1624.76 1325.82 1727.69 1801.96 1983.07 2332.5" stroke="white" stroke-opacity="0.25" stroke-miterlimit="10"/>
<path d="M-37.4611 1597.41C245.307 1477.39 410.48 1201.03 508.115 981.518C594.176 788.044 623.741 718.998 733.746 547.976C941.203 225.54 1221.41 -6.03531 1395.38 249.156C1499.62 402.04 1511.08 600.147 1581.99 1001.94C1640.05 1330.95 1745.53 1798.69 1996.25 2324.28" stroke="white" stroke-opacity="0.25" stroke-miterlimit="10"/>
<path d="M-36.8237 1508.96C237.238 1427.48 401.427 1172.36 498.329 971.999C585.73 791.282 622.255 730.423 738.327 562.955C949.367 258.436 1210.86 37.2902 1383.18 272.285C1492.29 421.088 1513.69 614.942 1592.41 1016.09C1655.19 1336.1 1763.4 1795.4 2009.48 2316.18" stroke="white" stroke-opacity="0.25" stroke-miterlimit="10"/>
<path d="M-36.1917 1420.51C229.187 1377.62 392.62 1143.8 488.538 962.472C577.472 794.342 620.666 741.645 742.898 577.915C957.263 290.786 1200.7 79.8242 1370.97 295.419C1485.13 439.957 1516.17 629.73 1602.83 1030.23C1670.14 1341.29 1781.28 1792.12 2022.69 2308" stroke="white" stroke-opacity="0.25" stroke-miterlimit="10"/>
<path d="M-35.5273 1332.06C221.168 1327.66 384.12 1115.38 478.779 952.951C569.476 797.309 619.018 752.627 747.5 592.88C964.957 322.59 1190.9 121.591 1358.8 318.558C1478.18 458.599 1518.46 644.548 1613.29 1044.39C1684.92 1346.55 1799.13 1788.8 2035.92 2299.84" stroke="white" stroke-opacity="0.25" stroke-miterlimit="10"/>
<path d="M-34.9169 1243.61C213.095 1277.74 375.864 1087.24 468.966 943.42C561.695 800.23 617.173 763.268 752.054 607.859C972.43 353.857 1181.36 162.577 1346.57 341.687C1471.36 476.936 1520.51 659.491 1623.68 1058.55C1699.54 1351.92 1816.99 1785.56 2049.17 2291.68" stroke="white" stroke-opacity="0.25" stroke-miterlimit="10"/>
<path d="M-34.2848 1155.2C205.049 1227.86 367.933 1059.49 459.174 933.932C554.153 803.242 615.28 773.78 756.624 622.857C979.737 384.639 1172.05 202.845 1334.36 364.859C1464.67 494.924 1522.39 674.611 1634.1 1072.73C1714 1357.46 1834.86 1782.31 2062.35 2283.55" stroke="white" stroke-opacity="0.25" stroke-miterlimit="10"/>
<path d="M-33.6474 1066.71C197.032 1177.91 360.316 1032.14 449.394 924.375C546.92 806.381 613.325 783.844 761.206 637.798C986.951 414.85 1162.97 242.296 1322.16 387.95C1458.15 512.378 1524.1 689.871 1644.53 1086.86C1728.32 1363.08 1852.72 1779 2075.58 2275.33" stroke="white" stroke-opacity="0.25" stroke-miterlimit="10"/>
<path d="M-33.0154 978.261C188.952 1128.01 352.986 1005.41 439.602 914.852C539.956 809.923 611.324 793.599 765.776 652.761C994.074 444.618 1154.05 281.084 1309.96 411.088C1451.75 529.314 1525.62 705.41 1654.95 1101C1742.53 1368.9 1870.59 1775.72 2088.79 2267.18" stroke="white" stroke-opacity="0.25" stroke-miterlimit="10"/>
<path d="M-32.378 889.797C180.906 1078.09 345.913 979.359 429.816 905.313C533.261 814.023 609.231 803.018 770.357 667.72C1001.15 473.928 1145.25 319.18 1297.76 434.221C1445.44 545.621 1526.99 721.226 1665.38 1115.15C1756.63 1374.9 1888.45 1772.43 2102.02 2259.02" stroke="white" stroke-opacity="0.25" stroke-miterlimit="10"/>
<path d="M-31.7406 801.353C172.866 1028.17 339.052 954.078 420.03 895.792C526.801 818.939 607.126 812.088 774.921 682.697C1008.16 502.839 1136.52 356.708 1285.55 457.348C1439.25 561.211 1528.18 737.393 1675.79 1129.3C1770.64 1381.11 1906.32 1769.19 2115.24 2250.82" stroke="white" stroke-opacity="0.25" stroke-miterlimit="10"/>
<path d="M-31.1086 712.91C164.814 978.273 332.323 929.62 410.216 886.273C520.484 824.923 604.971 820.818 779.486 697.664C1015.17 531.348 1127.81 393.513 1273.33 480.489C1433.12 575.994 1529.23 753.916 1686.2 1143.5C1784.55 1387.57 1924.16 1765.92 2128.43 2242.73" stroke="white" stroke-opacity="0.25" stroke-miterlimit="10"/>
<path d="M-30.4711 624.448C156.797 928.354 325.656 905.988 400.453 876.747C514.304 832.236 602.849 829.184 784.084 712.637C1022.2 559.446 1119.15 429.798 1261.15 503.611C1427.06 589.876 1530.18 770.776 1696.65 1157.6C1798.45 1394.18 1942.05 1762.59 2141.67 2234.52" stroke="white" stroke-opacity="0.25" stroke-miterlimit="10"/>
<path d="M-29.8067 536.005C148.749 878.441 319.761 838.856 390.694 867.215C506.714 913.614 600.732 837.202 788.693 727.603C1029.27 587.293 1110.42 465.549 1248.95 526.752C1421.01 602.734 1531 788.144 1707.07 1171.76C1812.28 1401.01 1959.92 1759.31 2154.9 2226.31" stroke="white" stroke-opacity="0.25" stroke-miterlimit="10"/>
<path d="M-29.2017 447.56C140.677 828.527 313.726 824.519 380.875 857.694C498.567 915.833 598.555 844.887 793.236 742.568C1036.36 614.746 1101.6 500.772 1236.74 549.891C1414.93 614.574 1531.72 805.879 1717.49 1185.94C1826.09 1408.09 1977.78 1756.07 2168.11 2218.22" stroke="white" stroke-opacity="0.25" stroke-miterlimit="10"/>
<path d="M-28.5589 359.098C132.636 778.62 306.911 811.586 371.094 848.168C490.904 916.442 596.427 852.225 797.822 757.479C1043.5 641.961 1092.67 535.586 1224.54 572.952C1408.82 625.172 1532.37 823.989 1727.92 1200C1839.88 1415.27 1995.66 1752.72 2181.34 2209.97" stroke="white" stroke-opacity="0.25" stroke-miterlimit="10"/>
<path d="M-27.9269 270.654C124.585 728.707 297.228 818.464 361.309 838.648C487.53 878.319 594.323 859.262 802.398 772.47C1050.71 668.95 1083.58 570.05 1212.34 596.117C1402.6 634.672 1532.94 842.693 1738.35 1214.22C1853.67 1422.81 2013.53 1749.47 2194.56 2201.87" stroke="white" stroke-opacity="0.25" stroke-miterlimit="10"/>
<path d="M-27.2894 182.205C116.539 678.788 289.251 797.652 351.517 829.111C479.535 893.782 592.236 865.975 806.968 787.443C1057.96 695.688 1074.28 604.129 1200.14 619.252C1396.25 642.806 1533.46 861.661 1748.77 1228.34C1867.45 1430.46 2031.39 1746.16 2207.78 2193.67" stroke="white" stroke-opacity="0.25" stroke-miterlimit="10"/>
<path d="M-26.6574 93.7451C108.493 628.871 280.724 776.816 341.725 819.587C470.803 910.129 590.184 872.395 811.544 802.43C1065.3 722.231 1064.76 637.94 1187.93 642.401C1389.71 649.754 1533.95 881.145 1759.2 1242.5C1881.25 1438.29 2049.25 1742.91 2221 2185.53" stroke="white" stroke-opacity="0.25" stroke-miterlimit="10"/>
</g>
</svg>
