<?xml version="1.0" encoding="UTF-8"?>
<svg id="_图层_1" data-name="图层 1" xmlns="http://www.w3.org/2000/svg" viewBox="0 0 700 200">
  <defs>
    <style>
      .cls-1 {
        fill: #ff847c;
        stroke-width: 0px;
      }
    </style>
  </defs>
  <g id="SvgjsG2009">
    <g>
      <path class="cls-1" d="m102.35,67.32c1.49-1.49,2.32-3.48,2.32-5.6,0-4.38-3.56-7.92-7.92-7.92s-7.92,3.56-7.92,7.92c0,2.12.83,4.11,2.32,5.6l27.06,27.07-5.6,5.6-27.06-27.07c-2.87-2.87-4.64-6.84-4.64-11.22h0c0-8.75,7.1-15.85,15.85-15.85s15.85,7.1,15.85,15.85c0,4.38-1.77,8.34-4.64,11.21l-5.6-5.59Z"/>
      <path class="cls-1" d="m102.35,67.32l1.08,1.08c1.79-1.77,2.77-4.18,2.77-6.7,0-5.22-4.24-9.46-9.46-9.46s-9.45,4.24-9.46,9.46h0c0,2.52.99,4.91,2.77,6.7l25.98,25.99-3.43,3.43-25.99-25.98c-2.6-2.6-4.19-6.18-4.19-10.13,0-.4-.16-.8-.45-1.08s-.68-.45-1.08-.45-.8.16-1.08.45-.45.68-.45,1.08h0c0,.4.16.8.45,1.08s.68.45,1.08.45.8-.16,1.08-.45.45-.68.45-1.08c.01-7.91,6.42-14.3,14.32-14.32,7.91.01,14.3,6.42,14.32,14.32,0,3.96-1.6,7.52-4.19,10.13l1.08,1.08,1.08-1.08-5.6-5.6-1.08,1.08,1.08,1.08-1.08-1.08-1.08,1.08,5.6,5.6c.28.28.68.45,1.08.45s.8-.16,1.08-.45c3.15-3.15,5.1-7.5,5.1-12.3,0-9.61-7.78-17.38-17.38-17.38s-17.38,7.78-17.38,17.38c0,.4.16.8.45,1.08s.68.45,1.08.45.8-.16,1.08-.45.45-.68.45-1.08h0c0-.4-.16-.8-.45-1.08s-.68-.45-1.08-.45-.8.16-1.08.45-.45.68-.45,1.08c0,4.79,1.95,9.15,5.1,12.3l27.07,27.06c.6.6,1.57.6,2.17,0l5.6-5.6c.28-.28.45-.68.45-1.08s-.16-.8-.45-1.08l-27.08-27.06c-1.21-1.21-1.87-2.8-1.88-4.52h0c0-3.52,2.87-6.39,6.39-6.39s6.39,2.87,6.39,6.39c0,1.72-.65,3.31-1.87,4.52-.29.29-.45.68-.45,1.08s.16.8.45,1.08l1.09-1.08Z"/>
      <path class="cls-1" d="m129.41,105.6c1.49,1.49,3.48,2.32,5.6,2.32,4.36,0,7.92-3.56,7.92-7.92s-3.55-7.92-7.91-7.92h0c-2.12,0-4.11.83-5.6,2.32l-27.07,27.06-5.6-5.6,27.07-27.06c2.87-2.87,6.83-4.64,11.21-4.64h0c8.75,0,15.85,7.1,15.85,15.86s-7.1,15.85-15.85,15.85c-4.38,0-8.34-1.77-11.21-4.64l5.59-5.62Z"/>
      <path class="cls-1" d="m129.41,105.6l-1.08,1.08c1.77,1.79,4.18,2.77,6.7,2.77,5.22,0,9.46-4.24,9.46-9.46s-4.23-9.46-9.45-9.46c-.41,0-.8.16-1.08.45-.29.29-.45.68-.45,1.08h1.53v-1.53c-2.52,0-4.91.99-6.7,2.76h0l-25.99,25.99-3.43-3.43,25.98-25.99c2.6-2.59,6.16-4.19,10.13-4.19.71,0,1.33-.49,1.49-1.19.16-.69-.17-1.41-.81-1.72h0l-.68,1.37v1.53c7.91.01,14.3,6.42,14.32,14.33-.01,7.91-6.42,14.3-14.32,14.32-3.96,0-7.52-1.6-10.13-4.19l-1.08,1.08,1.08,1.08,5.6-5.6-1.09-1.09-1.08,1.08,1.08-1.08-1.08-1.08-5.6,5.6c-.6.6-.6,1.57,0,2.17,3.14,3.15,7.5,5.1,12.3,5.1,9.61,0,17.38-7.78,17.38-17.38s-7.78-17.4-17.38-17.4c-.71,0-1.33.49-1.49,1.19-.16.69.17,1.41.81,1.72h0l.68-1.37v-1.53c-4.8,0-9.15,1.95-12.3,5.1l-27.06,27.06c-.28.28-.45.68-.45,1.08s.16.8.45,1.08l5.6,5.6c.6.6,1.57.6,2.17,0l27.06-27.06h0c1.23-1.21,2.8-1.87,4.52-1.87.4,0,.8-.16,1.08-.45s.45-.68.45-1.08h-1.53v1.53c3.52,0,6.39,2.87,6.38,6.39,0,3.52-2.87,6.39-6.39,6.39-1.72,0-3.31-.65-4.52-1.87-.29-.29-.68-.45-1.08-.45s-.8.16-1.08.45l1.08,1.08Z"/>
      <path class="cls-1" d="m64.07,94.39c-1.51-1.49-3.48-2.32-5.6-2.32-4.38,0-7.92,3.56-7.92,7.92s3.55,7.92,7.92,7.94h0c2.12,0,4.11-.83,5.6-2.32l27.07-27.07,5.6,5.6-27.07,27.06c-2.87,2.87-6.84,4.64-11.22,4.64h0c-8.77,0-15.85-7.1-15.85-15.86s7.1-15.85,15.85-15.85c4.38,0,8.34,1.77,11.21,4.64l-5.59,5.62Z"/>
      <path class="cls-1" d="m64.07,94.39l1.08-1.08c-1.77-1.79-4.18-2.77-6.7-2.77-5.22,0-9.46,4.24-9.46,9.46s4.23,9.46,9.46,9.47c.41,0,.8-.16,1.08-.45.29-.29.45-.68.45-1.08h-1.53v1.53c2.52,0,4.91-.99,6.7-2.77h0l25.99-25.99,3.43,3.43-25.98,25.99h0c-2.6,2.59-6.18,4.19-10.13,4.2-.68,0-1.27.44-1.47,1.08s.05,1.35.61,1.72h0l.85-1.27v-1.53c-7.91-.03-14.3-6.42-14.32-14.33.01-7.91,6.4-14.3,14.32-14.32,3.96,0,7.52,1.6,10.13,4.19l1.08-1.08-1.08-1.08-5.6,5.6,1.08,1.08,1.08-1.08-1.08,1.08,1.08,1.08,5.6-5.6c.29-.29.45-.68.45-1.08s-.16-.8-.45-1.08c-3.15-3.14-7.5-5.1-12.3-5.08-9.61,0-17.38,7.78-17.38,17.38s7.78,17.4,17.38,17.4c.68,0,1.27-.44,1.47-1.08s-.05-1.35-.61-1.72h0l-.85,1.27v1.53c4.79,0,9.15-1.95,12.3-5.1h0l27.07-27.06c.6-.6.6-1.57,0-2.17l-5.6-5.6c-.6-.6-1.57-.6-2.17,0l-27.06,27.04h0c-1.23,1.21-2.8,1.87-4.52,1.88-.4,0-.8.16-1.08.45s-.45.68-.45,1.08h1.53v-1.53c-3.52,0-6.39-2.87-6.39-6.4s2.87-6.38,6.39-6.39c1.72,0,3.3.65,4.52,1.87.6.6,1.57.6,2.17,0l-1.09-1.08Z"/>
      <path class="cls-1" d="m135.02,74.23h-1.53,1.53v-1.53c-6.58,0-12.81,2.33-17.74,6.58l1,1.16,1.08-1.08-1.96-1.96-1.08,1.08,1.16,1c4.24-4.94,6.56-11.18,6.56-17.76h0c0-15.05-12.23-27.3-27.3-27.3s-27.3,12.25-27.3,27.3c0,6.58,2.35,12.81,6.58,17.74l1.16-1-1.08-1.08-1.96,1.96,1.08,1.08,1-1.16c-4.94-4.24-11.19-6.56-17.77-6.56-15.04,0-27.28,12.25-27.28,27.3s12.25,27.3,27.3,27.31c.4,0,.8-.16,1.08-.45s.45-.68.45-1.08h-1.53v1.53c6.58,0,12.81-2.33,17.74-6.58l-1-1.16-1.08,1.08,1.96,1.96,1.08-1.08-1.16-1c-4.24,4.94-6.56,11.19-6.56,17.76,0,15.05,12.25,27.3,27.3,27.3s27.3-12.25,27.3-27.3c0-.4-.16-.8-.45-1.08s-.68-.45-1.08-.45h0v1.53h1.53c0-6.58-2.33-12.81-6.58-17.74l-1.16,1,1.08,1.08,1.96-1.96-1.08-1.08-1,1.16c4.94,4.26,11.19,6.56,17.77,6.56h0c15.05,0,27.3-12.25,27.3-27.3s-12.25-27.3-27.3-27.31c-.4,0-.8.16-1.08.45s-.45.68-.45,1.08h1.52v1.53c13.35.03,24.2,10.87,24.23,24.23-.03,13.35-10.87,24.2-24.23,24.23h0c-5.86,0-11.37-2.05-15.77-5.83-.61-.52-1.52-.49-2.08.08l-1.96,1.96c-.56.56-.6,1.48-.08,2.08,3.78,4.4,5.84,9.9,5.84,15.74,0,.4.16.8.45,1.08s.68.45,1.08.45h0v-1.53h-1.53c-.03,13.37-10.87,24.21-24.23,24.24-13.35-.03-24.21-10.87-24.23-24.23,0-5.86,2.05-11.37,5.83-15.77.52-.61.49-1.52-.08-2.08l-1.96-1.96c-.56-.56-1.48-.6-2.08-.08-4.4,3.78-9.9,5.84-15.74,5.84-.4,0-.8.16-1.08.45s-.45.68-.45,1.08h1.53v-1.53c-13.37-.03-24.21-10.87-24.24-24.23.03-13.35,10.87-24.2,24.23-24.23,5.86,0,11.37,2.05,15.77,5.83.61.52,1.52.48,2.08-.08l1.96-1.96c.56-.56.6-1.48.08-2.08-3.78-4.39-5.84-9.9-5.84-15.74.03-13.37,10.87-24.21,24.23-24.24,13.35.03,24.2,10.87,24.23,24.23h0c0,5.86-2.05,11.38-5.82,15.77-.52.61-.49,1.52.08,2.08l1.96,1.96c.56.56,1.48.6,2.08.08,4.4-3.78,9.9-5.84,15.74-5.84.4,0,.8-.16,1.08-.45s.45-.68.45-1.08h-1.53v1.53-1.53Z"/>
      <path class="cls-1" d="m91.14,132.65c-1.49,1.49-2.32,3.48-2.32,5.6,0,4.36,3.56,7.92,7.92,7.92s7.92-3.55,7.92-7.92h0c0-2.12-.83-4.11-2.32-5.6l-27.07-27.06,5.6-5.6,27.07,27.07c2.87,2.87,4.64,6.83,4.64,11.21h0c0,8.75-7.1,15.85-15.85,15.85s-15.85-7.1-15.85-15.85c0-4.38,1.77-8.34,4.64-11.21l5.6,5.59Z"/>
      <path class="cls-1" d="m91.14,132.65l-1.08-1.08c-1.77,1.77-2.77,4.18-2.76,6.68,0,5.22,4.24,9.46,9.46,9.46s9.46-4.23,9.46-9.46c0-.41-.16-.8-.45-1.08-.29-.29-.68-.45-1.08-.45h0v1.53h1.53c0-2.52-.99-4.91-2.76-6.7h0l-26-25.96,3.43-3.44,25.98,25.99c2.6,2.6,4.2,6.16,4.2,10.13,0,.72.49,1.33,1.19,1.49s1.41-.19,1.72-.83h0l-1.39-.67h-1.53c-.01,7.91-6.42,14.3-14.32,14.32-7.91-.01-14.3-6.42-14.32-14.32,0-3.96,1.6-7.52,4.19-10.13l-1.08-1.08-1.08,1.08,5.6,5.6,1.09-1.09-1.08-1.08,1.08,1.08,1.08-1.08-5.6-5.6c-.6-.6-1.57-.6-2.17,0-3.15,3.14-5.1,7.5-5.1,12.3,0,9.61,7.78,17.38,17.38,17.38s17.38-7.78,17.38-17.38c0-.72-.49-1.33-1.19-1.49s-1.41.19-1.72.83h0l1.39.67h1.53c0-4.8-1.95-9.15-5.1-12.3l-27.06-27.07c-.29-.29-.68-.45-1.08-.45s-.8.16-1.08.45l-5.6,5.6c-.6.6-.6,1.57,0,2.17l27.06,27.07h0c1.21,1.23,1.87,2.81,1.88,4.52,0,.4.16.8.45,1.08s.68.45,1.08.45h0v-1.53h-1.53c0,3.52-2.87,6.38-6.39,6.39-3.52,0-6.39-2.87-6.39-6.39,0-1.72.65-3.31,1.87-4.52.6-.6.6-1.57,0-2.17l-1.09,1.08Z"/>
      <path class="cls-1" d="m96.73,115.84l1.08-1.08-14.77-14.77,13.69-13.67,13.69,13.67-14.77,14.77,1.08,1.08,1.08-1.08-1.08,1.08,1.08,1.08,15.85-15.85c.28-.28.45-.68.45-1.08s-.16-.8-.45-1.08l-15.85-15.86c-.6-.6-1.57-.6-2.17,0l-15.85,15.85c-.6.6-.6,1.57,0,2.17l15.86,15.86c.28.28.68.45,1.08.45s.8-.16,1.08-.45l-1.08-1.09Z"/>
    </g>
  </g>
  <g id="SvgjsG2010">
    <path class="cls-1" d="m217.01,128.1c-.48,0-.96-.29-1.15-.76l-19.1-57.3c-.19-.38-.1-.76.1-1.15.29-.29.67-.48,1.05-.48h13.37c.48,0,.96.29,1.15.86l11.36,37.34,11.46-37.34c.19-.57.67-.86,1.15-.86h12.8c.38,0,.76.19,1.05.48.19.38.29.76.1,1.15l-19.39,57.3c-.19.48-.57.76-1.15.76h-12.8Zm42.98,0v-57.21c0-2.39.48-2.87,1.24-2.87h41.83c.67,0,1.24.48,1.24,1.15v10.79c0,.67-.57,1.24-1.24,1.24h-28.27v9.93h17.86c.67,0,1.24.57,1.24,1.24v10.7c0,.67-.57,1.24-1.24,1.24h-17.86v10.22h28.17c.67,0,1.24.57,1.24,1.24v10.7c0,.67-.57,1.24-1.24,1.24h-41.73c-.76,0-1.24-.57-1.24.38Zm55.1,0c-.76,0-1.24-.57-1.24-1.24v-57.21c0-.67.48-1.24,1.24-1.24h23.3c7.26,0,12.99,1.81,17,5.54,5.92,5.35,7.93,15.47,5.06,22.92-1.05,2.67-2.87,5.16-5.16,6.97-1.34,1.05-2.77,1.81-4.2,2.58,4.11,6.49,10.31,19.67,10.31,19.67.1.19.29.48.29.76,0,.67-.57,1.24-1.24,1.24h-14.13c-.38,0-.86-.29-1.05-.67l-8.31-18.24c-2.96.19-5.25.1-8.31.1v17.57c0,.67-.57,1.24-1.24,1.24h-12.32Zm13.56-32.09s12.03,1.34,16.24-1.43c1.62-1.05,2.58-3.63,2.58-5.54-.1-2.1-1.15-4.3-2.87-5.63-1.81-1.53-6.3-2.01-8.6-2.01l-7.35.19v14.42h0Zm43.93,32.09c-.67,0-1.24-.57-1.24-1.24v-57.21c0-.67.57-1.24,1.24-1.24h12.42c.67,0,1.24.57,1.24,1.24v57.21c0,.67-.57,1.24-1.24,1.24h-12.42Zm48.71.57c-4.58,0-9.17-.86-13.56-2.58-4.39-1.62-8.31-4.01-11.56-6.88-.38-.38-.48-.96-.29-1.43l3.34-11.36c.19-.38.48-.67.86-.67.38-.1.76,0,1.05.29,5.06,4.78,10.79,9.07,17.95,9.45,1.91.1,4.01.19,5.83-.38,5.63-1.81,3.25-7.54-.96-9.26-1.43-.57-3.44-1.24-6.02-2.01-3.82-1.05-6.97-2.2-9.36-3.34-2.58-1.15-4.78-2.96-6.69-5.35-1.81-2.48-2.77-5.73-2.77-9.65s.96-6.97,2.87-9.74,4.58-4.97,7.93-6.4,7.26-2.2,11.65-2.2c3.92,0,7.74.57,11.56,1.81,3.72,1.15,7.07,2.77,10.03,4.68.48.38.67.96.38,1.53l-3.15,10.7c-.1.38-.38.57-.76.67-.29.1-.67.1-.96-.1-4.3-2.67-8.6-5.92-13.66-6.59-3.34-.48-8.4-.29-9.55,3.72-1.43,5.16,6.11,6.49,9.55,7.54,3.82,1.15,6.97,2.29,9.45,3.44,2.58,1.24,4.87,3.15,6.69,5.54,1.91,2.48,2.87,5.83,2.87,9.84s-1.05,7.26-3.06,10.12c-1.91,2.87-4.68,4.97-8.12,6.49-3.44,1.34-7.26,2.1-11.56,2.1h0Zm32.28-.57v-57.21c0-2.39.48-2.87,1.24-2.87h41.83c.67,0,1.24.48,1.24,1.15v10.79c0,.67-.57,1.24-1.24,1.24h-28.27v9.93h17.86c.67,0,1.24.57,1.24,1.24v10.7c0,.67-.57,1.24-1.24,1.24h-17.86v10.22h28.17c.67,0,1.24.57,1.24,1.24v10.7c0,.67-.57,1.24-1.24,1.24h-41.73c-.76,0-1.24-.57-1.24.38h0Zm55.1,0c-.67,0-1.24-.57-1.24-1.24v-57.21c0-.67.57-1.24,1.24-1.24h11.27c.38,0,.76.19,1.05.48l21.97,33.9v-33.14c0-.67.57-1.24,1.24-1.24h11.75c.67,0,1.24.57,1.24,1.24v57.21c0,.67-.57,1.24-1.24,1.24h-11.27c-.38,0-.76-.19-1.05-.48l-21.87-33.71v32.95c0,.67-.57,1.24-1.24,1.24h-11.84,0Zm83.56.57c-4.58,0-9.17-.86-13.56-2.58-4.39-1.62-8.31-4.01-11.56-6.88-.38-.38-.48-.96-.29-1.43l3.34-11.36c.19-.38.48-.67.86-.67.38-.1.76,0,1.05.29,5.06,4.78,10.79,9.07,17.95,9.45,1.91.1,4.01.19,5.83-.38,5.63-1.81,3.25-7.54-.95-9.26-1.43-.57-3.44-1.24-6.02-2.01-3.82-1.05-6.97-2.2-9.36-3.34-2.58-1.15-4.78-2.96-6.69-5.35-1.81-2.48-2.77-5.73-2.77-9.65s.95-6.97,2.87-9.74,4.58-4.97,7.93-6.4,7.26-2.2,11.65-2.2c3.92,0,7.74.57,11.56,1.81,3.72,1.15,7.07,2.77,10.03,4.68.48.38.67.96.38,1.53l-3.15,10.7c-.1.38-.38.57-.76.67-.29.1-.67.1-.95-.1-4.3-2.67-8.6-5.92-13.66-6.59-3.34-.48-8.4-.29-9.55,3.72-1.43,5.16,6.11,6.49,9.55,7.54,3.82,1.15,6.97,2.29,9.45,3.44,2.58,1.24,4.87,3.15,6.69,5.54,1.91,2.48,2.87,5.83,2.87,9.84s-1.05,7.26-3.06,10.12c-1.91,2.87-4.68,4.97-8.12,6.49-3.44,1.34-7.26,2.1-11.56,2.1h0Zm32.28-.57v-57.21c0-2.39.48-2.87,1.24-2.87h41.83c.67,0,1.24.48,1.24,1.15v10.79c0,.67-.57,1.24-1.24,1.24h-28.27v9.93h17.86c.67,0,1.24.57,1.24,1.24v10.7c0,.67-.57,1.24-1.24,1.24h-17.86v10.22h28.17c.67,0,1.24.57,1.24,1.24v10.7c0,.67-.57,1.24-1.24,1.24h-41.73c-.76,0-1.24-.57-1.24.38h0Z"/>
  </g>
</svg>