<?xml version="1.0" encoding="UTF-8" standalone="no"?>
<svg
   width="637.6500000000001"
   height="150.1190585331453"
   viewBox="0 0 369.9130434782609 87.08695652173914"
   class="looka-1j8o68f"
   version="1.1"
   style="block-size:150.109px;height:150.109px;inline-size:637.641px;perspective-origin:318.812px 75.0469px;touch-action:none;transform-origin:318.82px 75.0547px;width:637.641px;"
   id="svg189"
   sodipodi:docname="looka-1j8o68f (1).svg"
   inkscape:version="1.2.2 (732a01da63, 2022-12-09)"
   xmlns:inkscape="http://www.inkscape.org/namespaces/inkscape"
   xmlns:sodipodi="http://sodipodi.sourceforge.net/DTD/sodipodi-0.dtd"
   xmlns="http://www.w3.org/2000/svg"
   xmlns:svg="http://www.w3.org/2000/svg">
  <sodipodi:namedview
     id="namedview191"
     pagecolor="#ffffff"
     bordercolor="#000000"
     borderopacity="0.25"
     inkscape:showpageshadow="2"
     inkscape:pageopacity="0.0"
     inkscape:pagecheckerboard="0"
     inkscape:deskcolor="#d1d1d1"
     showgrid="false"
     inkscape:zoom="1.5720855"
     inkscape:cx="318.68496"
     inkscape:cy="75.377581"
     inkscape:window-width="1440"
     inkscape:window-height="878"
     inkscape:window-x="-6"
     inkscape:window-y="-6"
     inkscape:window-maximized="1"
     inkscape:current-layer="svg189" />
  <defs
     id="SvgjsDefs2008"
     style="block-size:auto;height:auto;inline-size:auto;overflow-x:visible;overflow-y:visible;perspective-origin:0px 0px;transform-origin:0px 0px;width:auto;" />
  <g
     id="SvgjsG2009"
     featurekey="hmhgWD-0"
     transform="matrix(0.07739493,0,0,0.07739493,-0.03869747,5.1601101)"
     fill="#ff847c"
     style="fill:#ff847c">
    <g
       style="fill:#ff847c"
       id="g183">
      <path
         d="m 534,247.1 c 11.2,-11.2 17.4,-26.1 17.4,-42 0,-32.8 -26.7,-59.4 -59.4,-59.4 -32.7,0 -59.4,26.7 -59.4,59.4 0,15.9 6.2,30.8 17.4,42 L 652.8,450 610.8,492 408,289.1 C 386.5,267.6 373.2,237.8 373.2,205 v 0 c 0,-65.6 53.2,-118.8 118.8,-118.8 65.6,0 118.8,53.2 118.8,118.8 0,32.8 -13.3,62.5 -34.8,84 z"
         style="d:path('M 534 247.1 C 545.2 235.9 551.4 221 551.4 205.1 C 551.4 172.3 524.7 145.7 492 145.7 C 459.3 145.7 432.6 172.4 432.6 205.1 C 432.6 221 438.8 235.9 450 247.1 L 652.8 450 L 610.8 492 L 408 289.1 C 386.5 267.6 373.2 237.8 373.2 205 V 205 C 373.2 139.4 426.4 86.2 492 86.2 C 557.6 86.2 610.8 139.4 610.8 205 C 610.8 237.8 597.5 267.5 576 289 L 534 247.1 Z');fill:#ff847c"
         id="path163" />
      <path
         d="m 534,247.1 8.1,8.1 c 13.4,-13.3 20.8,-31.3 20.8,-50.2 0,-39.1 -31.8,-70.9 -70.9,-70.9 -39.1,0 -70.8,31.8 -70.9,70.9 v 0 c 0,18.9 7.4,36.8 20.8,50.2 L 636.6,450 610.9,475.7 416.1,281 c -19.5,-19.5 -31.4,-46.3 -31.4,-75.9 0,-3 -1.2,-6 -3.4,-8.1 -2.2,-2.1 -5.1,-3.4 -8.1,-3.4 -3,0 -6,1.2 -8.1,3.4 -2.1,2.2 -3.4,5.1 -3.4,8.1 v 0 c 0,3 1.2,6 3.4,8.1 2.2,2.1 5.1,3.4 8.1,3.4 3,0 6,-1.2 8.1,-3.4 2.1,-2.2 3.4,-5.1 3.4,-8.1 0.1,-59.3 48.1,-107.2 107.3,-107.3 59.3,0.1 107.2,48.1 107.3,107.3 0,29.7 -12,56.4 -31.4,75.9 l 8.1,8.1 8.1,-8.1 -42,-42 -8.1,8.1 8.1,8.1 -8.1,-8.1 -8.1,8.1 42,42 c 2.1,2.1 5.1,3.4 8.1,3.4 3,0 6,-1.2 8.1,-3.4 C 607.7,273.6 622.3,241 622.3,205 622.3,133 564,74.7 492,74.7 420,74.7 361.7,133 361.7,205 c 0,3 1.2,6 3.4,8.1 2.2,2.1 5.1,3.4 8.1,3.4 3,0 6,-1.2 8.1,-3.4 2.1,-2.2 3.4,-5.1 3.4,-8.1 v 0 c 0,-3 -1.2,-6 -3.4,-8.1 -2.2,-2.1 -5.1,-3.4 -8.1,-3.4 -3,0 -6,1.2 -8.1,3.4 -2.1,2.2 -3.4,5.1 -3.4,8.1 0,35.9 14.6,68.6 38.2,92.2 L 602.8,500 c 4.5,4.5 11.8,4.5 16.3,0 l 42,-42 c 2.1,-2.1 3.4,-5.1 3.4,-8.1 0,-3 -1.2,-6 -3.4,-8.1 L 458.1,239 c -9.1,-9.1 -14,-21 -14.1,-33.9 v 0 c 0,-26.4 21.5,-47.9 47.9,-47.9 26.4,0 47.9,21.5 47.9,47.9 0,12.9 -4.9,24.8 -14,33.9 -2.2,2.2 -3.4,5.1 -3.4,8.1 0,3.1 1.2,6 3.4,8.1 z"
         style="d:path('M 534 247.1 L 542.1 255.2 C 555.5 241.9 562.9 223.9 562.9 205 C 562.9 165.9 531.1 134.1 492 134.1 C 452.9 134.1 421.2 165.9 421.1 205 V 205 C 421.1 223.9 428.5 241.8 441.9 255.2 L 636.6 450 L 610.9 475.7 L 416.1 281 C 396.6 261.5 384.7 234.7 384.7 205.1 C 384.7 202.1 383.5 199.1 381.3 197 S 376.2 193.6 373.2 193.6 C 370.2 193.6 367.2 194.8 365.1 197 S 361.7 202.1 361.7 205.1 V 205.1 C 361.7 208.1 362.9 211.1 365.1 213.2 S 370.2 216.6 373.2 216.6 C 376.2 216.6 379.2 215.4 381.3 213.2 S 384.7 208.1 384.7 205.1 C 384.8 145.8 432.8 97.9 492 97.8 C 551.3 97.9 599.2 145.9 599.3 205.1 C 599.3 234.8 587.3 261.5 567.9 281 L 576 289.1 L 584.1 281 L 542.1 239 L 534 247.1 L 542.1 255.2 L 534 247.1 L 525.9 255.2 L 567.9 297.2 C 570 299.3 573 300.6 576 300.6 C 579 300.6 582 299.4 584.1 297.2 C 607.7 273.6 622.3 241 622.3 205 C 622.3 133 564 74.7 492 74.7 C 420 74.7 361.7 133 361.7 205 C 361.7 208 362.9 211 365.1 213.1 S 370.2 216.5 373.2 216.5 C 376.2 216.5 379.2 215.3 381.3 213.1 S 384.7 208 384.7 205 V 205 C 384.7 202 383.5 199 381.3 196.9 S 376.2 193.5 373.2 193.5 C 370.2 193.5 367.2 194.7 365.1 196.9 S 361.7 202 361.7 205 C 361.7 240.9 376.3 273.6 399.9 297.2 L 602.8 500 C 607.3 504.5 614.6 504.5 619.1 500 L 661.1 458 C 663.2 455.9 664.5 452.9 664.5 449.9 C 664.5 446.9 663.3 443.9 661.1 441.8 L 458.1 239 C 449 229.9 444.1 218 444 205.1 V 205.1 C 444 178.7 465.5 157.2 491.9 157.2 C 518.3 157.2 539.8 178.7 539.8 205.1 C 539.8 218 534.9 229.9 525.8 239 C 523.6 241.2 522.4 244.1 522.4 247.1 C 522.4 250.2 523.6 253.1 525.8 255.2 L 534 247.1 Z');fill:#ff847c"
         id="path165" />
      <path
         d="m 736.8,534 c 11.2,11.2 26.1,17.4 42,17.4 32.7,0 59.4,-26.7 59.4,-59.4 0,-32.8 -26.6,-59.4 -59.3,-59.4 v 0 c -15.9,0 -30.8,6.2 -42,17.4 L 534,652.8 492,610.8 694.9,408 c 21.5,-21.5 51.2,-34.8 84,-34.8 v 0 c 65.6,0 118.8,53.2 118.8,118.9 0,65.7 -53.2,118.8 -118.8,118.8 -32.8,0 -62.5,-13.3 -84,-34.8 z"
         style="d:path('M 736.8 534 C 748 545.2 762.9 551.4 778.8 551.4 C 811.5 551.4 838.2 524.7 838.2 492 C 838.2 459.2 811.6 432.6 778.9 432.6 V 432.6 C 763 432.6 748.1 438.8 736.9 450 L 534 652.8 L 492 610.8 L 694.9 408 C 716.4 386.5 746.1 373.2 778.9 373.2 L 778.9 373.2 C 844.5 373.2 897.7 426.4 897.7 492.1 S 844.5 610.9 778.9 610.9 C 746.1 610.9 716.4 597.6 694.9 576.1 L 736.8 534 Z');fill:#ff847c"
         id="path167" />
      <path
         d="m 736.8,534 -8.1,8.1 c 13.3,13.4 31.3,20.8 50.2,20.8 39.1,0 70.9,-31.8 70.9,-70.9 0,-39.1 -31.7,-70.9 -70.8,-70.9 -3.1,0 -6,1.2 -8.1,3.4 -2.2,2.2 -3.4,5.1 -3.4,8.1 v 0 H 779 v -11.5 c -18.9,0 -36.8,7.4 -50.2,20.7 v 0 L 534,636.6 508.3,610.9 703,416.1 c 19.5,-19.4 46.2,-31.4 75.9,-31.4 5.3,0 10,-3.7 11.2,-8.9 1.2,-5.2 -1.3,-10.6 -6.1,-12.9 v 0 l -5.1,10.3 v 11.5 c 59.3,0.1 107.2,48.1 107.3,107.4 -0.1,59.3 -48.1,107.2 -107.3,107.3 -29.7,0 -56.4,-12 -75.9,-31.4 l -8.1,8.1 8.1,8.1 42,-42 -8.2,-8.2 -8.1,8.1 8.1,-8.1 -8.1,-8.1 -42,42 c -4.5,4.5 -4.5,11.8 0,16.3 23.5,23.6 56.2,38.2 92.2,38.2 72,0 130.3,-58.3 130.3,-130.3 0,-72 -58.3,-130.4 -130.3,-130.4 -5.3,0 -10,3.7 -11.2,8.9 -1.2,5.2 1.3,10.6 6.1,12.9 v 0 l 5.1,-10.3 v -11.5 c -36,0 -68.6,14.6 -92.2,38.2 L 483.9,602.7 c -2.1,2.1 -3.4,5.1 -3.4,8.1 0,3 1.2,6 3.4,8.1 l 42,42 c 4.5,4.5 11.8,4.5 16.3,0 L 745,458.1 v 0 c 9.2,-9.1 21,-14 33.9,-14 3,0 6,-1.2 8.1,-3.4 2.1,-2.2 3.4,-5.1 3.4,-8.1 v 0 h -11.5 v 11.5 c 26.4,0 47.9,21.5 47.8,47.9 0,26.4 -21.5,47.9 -47.9,47.9 -12.9,0 -24.8,-4.9 -33.9,-14 -2.2,-2.2 -5.1,-3.4 -8.1,-3.4 -3.1,0 -6,1.2 -8.1,3.4 z"
         style="d:path('M 736.8 534 L 728.7 542.1 C 742 555.5 760 562.9 778.9 562.9 C 818 562.9 849.8 531.1 849.8 492 C 849.8 452.9 818.1 421.1 779 421.1 C 775.9 421.1 773 422.3 770.9 424.5 C 768.7 426.7 767.5 429.6 767.5 432.6 V 432.6 H 779 V 421.1 C 760.1 421.1 742.2 428.5 728.8 441.8 L 728.8 441.8 L 534 636.6 L 508.3 610.9 L 703 416.1 C 722.5 396.7 749.2 384.7 778.9 384.7 C 784.2 384.7 788.9 381 790.1 375.8 C 791.3 370.6 788.8 365.2 784 362.9 L 784 362.9 L 778.9 373.2 V 384.7 C 838.2 384.8 886.1 432.8 886.2 492.1 C 886.1 551.4 838.1 599.3 778.9 599.4 C 749.2 599.4 722.5 587.4 703 568 L 694.9 576.1 L 703 584.2 L 745 542.2 L 736.8 534 L 728.7 542.1 L 736.8 534 L 728.7 525.9 L 686.7 567.9 C 682.2 572.4 682.2 579.7 686.7 584.2 C 710.2 607.8 742.9 622.4 778.9 622.4 C 850.9 622.4 909.2 564.1 909.2 492.1 C 909.2 420.1 850.9 361.7 778.9 361.7 C 773.6 361.7 768.9 365.4 767.7 370.6 C 766.5 375.8 769 381.2 773.8 383.5 L 773.8 383.5 L 778.9 373.2 V 361.7 C 742.9 361.7 710.3 376.3 686.7 399.9 L 483.9 602.7 C 481.8 604.8 480.5 607.8 480.5 610.8 C 480.5 613.8 481.7 616.8 483.9 618.9 L 525.9 660.9 C 530.4 665.4 537.7 665.4 542.2 660.9 L 745 458.1 L 745 458.1 C 754.2 449 766 444.1 778.9 444.1 C 781.9 444.1 784.9 442.9 787 440.7 S 790.4 435.6 790.4 432.6 V 432.6 H 778.9 L 778.9 444.1 C 805.3 444.1 826.8 465.6 826.7 492 C 826.7 518.4 805.2 539.9 778.8 539.9 C 765.9 539.9 754 535 744.9 525.9 C 742.7 523.7 739.8 522.5 736.8 522.5 C 733.7 522.5 730.8 523.7 728.7 525.9 L 736.8 534 Z');fill:#ff847c"
         id="path169" />
      <path
         d="m 247.1,450 c -11.3,-11.2 -26.1,-17.4 -42,-17.4 -32.8,0 -59.4,26.7 -59.4,59.4 0,32.8 26.6,59.4 59.4,59.5 v 0 c 15.9,0 30.8,-6.2 42,-17.4 L 450,331.2 492,373.2 289.1,576 c -21.5,21.5 -51.3,34.8 -84.1,34.8 v 0 c -65.7,0 -118.8,-53.2 -118.8,-118.9 0,-65.6 53.2,-118.8 118.8,-118.8 32.8,0 62.5,13.3 84,34.8 z"
         style="d:path('M 247.1 450 C 235.8 438.8 221 432.6 205.1 432.6 C 172.3 432.6 145.7 459.3 145.7 492 C 145.7 524.8 172.3 551.4 205.1 551.5 V 551.5 C 221 551.5 235.9 545.3 247.1 534.1 L 450 331.2 L 492 373.2 L 289.1 576 C 267.6 597.5 237.8 610.8 205 610.8 L 205 610.8 C 139.3 610.8 86.2 557.6 86.2 491.9 C 86.2 426.3 139.4 373.1 205 373.1 C 237.8 373.1 267.5 386.4 289 407.9 L 247.1 450 Z');fill:#ff847c"
         id="path171" />
      <path
         d="m 247.1,450 8.1,-8.1 c -13.3,-13.4 -31.3,-20.8 -50.2,-20.8 -39.1,0 -70.9,31.8 -70.9,70.9 0,39.1 31.7,70.9 70.9,71 3.1,0 6,-1.2 8.1,-3.4 2.2,-2.2 3.4,-5.1 3.4,-8.1 v 0 H 205 V 563 c 18.9,0 36.8,-7.4 50.2,-20.8 v 0 L 450,347.4 475.7,373.1 281,567.9 v 0 c -19.5,19.4 -46.3,31.4 -75.9,31.5 -5.1,0 -9.5,3.3 -11,8.1 -1.5,4.8 0.4,10.1 4.6,12.9 v 0 l 6.4,-9.5 V 599.4 C 145.8,599.2 97.9,551.3 97.8,492 c 0.1,-59.3 48,-107.2 107.3,-107.3 29.7,0 56.4,12 75.9,31.4 l 8.1,-8.1 -8.1,-8.1 -42,42 8.1,8.1 8.1,-8.1 -8.1,8.1 8.1,8.1 42,-42 c 2.2,-2.2 3.4,-5.1 3.4,-8.1 0,-3.1 -1.2,-6 -3.4,-8.1 -23.6,-23.5 -56.2,-38.2 -92.2,-38.1 -72,0 -130.3,58.3 -130.3,130.3 0,72 58.3,130.4 130.3,130.4 5.1,0 9.5,-3.3 11,-8.1 1.5,-4.8 -0.4,-10.1 -4.6,-12.9 v 0 L 205,611 v 11.5 c 35.9,0 68.6,-14.6 92.2,-38.2 v 0 L 500.1,381.5 c 4.5,-4.5 4.5,-11.8 0,-16.3 l -42,-42 c -4.5,-4.5 -11.8,-4.5 -16.3,0 L 239,525.9 v 0 c -9.2,9.1 -21,14 -33.9,14.1 -3,0 -6,1.2 -8.1,3.4 -2.1,2.2 -3.4,5.1 -3.4,8.1 v 0 h 11.5 V 540 c -26.4,0 -47.9,-21.5 -47.9,-48 0,-26.4 21.5,-47.8 47.9,-47.9 12.9,0 24.7,4.9 33.9,14 4.5,4.5 11.8,4.5 16.3,0 z"
         style="d:path('M 247.1 450 L 255.2 441.9 C 241.9 428.5 223.9 421.1 205 421.1 C 165.9 421.1 134.1 452.9 134.1 492 C 134.1 531.1 165.8 562.9 205 563 C 208.1 563 211 561.8 213.1 559.6 C 215.3 557.4 216.5 554.5 216.5 551.5 V 551.5 H 205 V 563 C 223.9 563 241.8 555.6 255.2 542.2 L 255.2 542.2 L 450 347.4 L 475.7 373.1 L 281 567.9 L 281 567.9 C 261.5 587.3 234.7 599.3 205.1 599.4 C 200 599.4 195.6 602.7 194.1 607.5 C 192.6 612.3 194.5 617.6 198.7 620.4 L 198.7 620.4 L 205.1 610.9 V 599.4 C 145.8 599.2 97.9 551.3 97.8 492 C 97.9 432.7 145.8 384.8 205.1 384.7 C 234.8 384.7 261.5 396.7 281 416.1 L 289.1 408 L 281 399.9 L 239 441.9 L 247.1 450 L 255.2 441.9 L 247.1 450 L 255.2 458.1 L 297.2 416.1 C 299.4 413.9 300.6 411 300.6 408 C 300.6 404.9 299.4 402 297.2 399.9 C 273.6 376.4 241 361.7 205 361.8 C 133 361.8 74.7 420.1 74.7 492.1 C 74.7 564.1 133 622.5 205 622.5 C 210.1 622.5 214.5 619.2 216 614.4 C 217.5 609.6 215.6 604.3 211.4 601.5 L 211.4 601.5 L 205 611 V 622.5 C 240.9 622.5 273.6 607.9 297.2 584.3 L 297.2 584.3 L 500.1 381.5 C 504.6 377 504.6 369.7 500.1 365.2 L 458.1 323.2 C 453.6 318.7 446.3 318.7 441.8 323.2 L 239 525.9 L 239 525.9 C 229.8 535 218 539.9 205.1 540 C 202.1 540 199.1 541.2 197 543.4 S 193.6 548.5 193.6 551.5 V 551.5 H 205.1 L 205.1 540 C 178.7 540 157.2 518.5 157.2 492 C 157.2 465.6 178.7 444.2 205.1 444.1 C 218 444.1 229.8 449 239 458.1 C 243.5 462.6 250.8 462.6 255.3 458.1 L 247.1 450 Z');fill:#ff847c"
         id="path173" />
      <path
         d="m 778.9,298.9 h -11.5 v 0 h 11.5 v -11.5 c -49.3,0 -96,17.5 -133,49.3 l 7.5,8.7 8.1,-8.1 -14.7,-14.7 -8.1,8.1 8.7,7.5 c 31.8,-37 49.2,-83.8 49.2,-133.1 v 0 C 696.6,92.3 604.9,0.5 492,0.5 379.1,0.5 287.4,92.3 287.4,205.1 c 0,49.3 17.6,96 49.3,133 l 8.7,-7.5 -8.1,-8.1 -14.7,14.7 8.1,8.1 7.5,-8.7 C 301.2,304.8 254.3,287.4 205,287.4 92.3,287.4 0.5,379.2 0.5,492 c 0,112.9 91.8,204.6 204.6,204.7 3,0 6,-1.2 8.1,-3.4 2.1,-2.2 3.4,-5.1 3.4,-8.1 v 0 h -11.5 v 11.5 c 49.3,0 96,-17.5 133,-49.3 l -7.5,-8.7 -8.1,8.1 14.7,14.7 8.1,-8.1 -8.7,-7.5 c -31.8,37 -49.2,83.9 -49.2,133.1 0,112.8 91.8,204.6 204.6,204.6 112.9,0 204.6,-91.8 204.6,-204.6 0,-3 -1.2,-6 -3.4,-8.1 -2.2,-2.1 -5.1,-3.4 -8.1,-3.4 v 0 11.5 h 11.5 c 0,-49.3 -17.5,-96 -49.3,-133 l -8.7,7.5 8.1,8.1 14.7,-14.7 -8.1,-8.1 -7.5,8.7 c 37,31.9 83.9,49.2 133.2,49.2 v 0 c 112.8,0 204.6,-91.8 204.6,-204.6 0,-112.9 -91.8,-204.6 -204.6,-204.7 -3,0 -6,1.2 -8.1,3.4 -2.1,2.2 -3.4,5.1 -3.4,8.1 h 11.4 v 11.5 C 879,310.6 960.3,391.9 960.5,492 960.3,592.1 879,673.4 778.9,673.6 v 0 c -43.9,0 -85.2,-15.4 -118.2,-43.7 -4.6,-3.9 -11.4,-3.7 -15.6,0.6 l -14.7,14.7 c -4.2,4.2 -4.5,11.1 -0.6,15.6 28.3,33 43.8,74.2 43.8,118 0,3 1.2,6 3.4,8.1 2.2,2.1 5.1,3.4 8.1,3.4 v 0 -11.5 H 673.6 C 673.4,879 592.1,960.3 492,960.5 391.9,960.3 310.5,879 310.4,778.9 c 0,-43.9 15.4,-85.2 43.7,-118.2 3.9,-4.6 3.7,-11.4 -0.6,-15.6 l -14.7,-14.7 c -4.2,-4.2 -11.1,-4.5 -15.6,-0.6 -33,28.3 -74.2,43.8 -118,43.8 -3,0 -6,1.2 -8.1,3.4 -2.1,2.2 -3.4,5.1 -3.4,8.1 v 0 h 11.5 V 673.6 C 105,673.4 23.7,592.1 23.5,492 23.7,391.9 105,310.6 205.1,310.4 c 43.9,0 85.2,15.4 118.2,43.7 4.6,3.9 11.4,3.6 15.6,-0.6 l 14.7,-14.7 c 4.2,-4.2 4.5,-11.1 0.6,-15.6 C 325.9,290.3 310.4,249 310.4,205.2 310.6,105 391.9,23.7 492,23.5 592.1,23.7 673.4,105 673.6,205.1 v 0 c 0,43.9 -15.4,85.3 -43.6,118.2 -3.9,4.6 -3.7,11.4 0.6,15.6 l 14.7,14.7 c 4.2,4.2 11.1,4.5 15.6,0.6 33,-28.3 74.2,-43.8 118,-43.8 3,0 6,-1.2 8.1,-3.4 2.1,-2.2 3.4,-5.1 3.4,-8.1 v 0 h -11.5 v 11.5 z"
         style="d:path('M 778.9 298.9 H 767.4 V 298.9 L 778.9 298.9 V 287.4 C 729.6 287.4 682.9 304.9 645.9 336.7 L 653.4 345.4 L 661.5 337.3 L 646.8 322.6 L 638.7 330.7 L 647.4 338.2 C 679.2 301.2 696.6 254.4 696.6 205.1 L 696.6 205.1 C 696.6 92.3 604.9 0.5 492 0.5 C 379.1 0.5 287.4 92.3 287.4 205.1 C 287.4 254.4 305 301.1 336.7 338.1 L 345.4 330.6 L 337.3 322.5 L 322.6 337.2 L 330.7 345.3 L 338.2 336.6 C 301.2 304.8 254.3 287.4 205 287.4 C 92.3 287.4 0.5 379.2 0.5 492 C 0.5 604.9 92.3 696.6 205.1 696.7 C 208.1 696.7 211.1 695.5 213.2 693.3 S 216.6 688.2 216.6 685.2 V 685.2 H 205.1 V 696.7 C 254.4 696.7 301.1 679.2 338.1 647.4 L 330.6 638.7 L 322.5 646.8 L 337.2 661.5 L 345.3 653.4 L 336.6 645.9 C 304.8 682.9 287.4 729.8 287.4 779 C 287.4 891.8 379.2 983.6 492 983.6 C 604.9 983.6 696.6 891.8 696.6 779 C 696.6 776 695.4 773 693.2 770.9 S 688.1 767.5 685.1 767.5 H 685.1 V 779 H 696.6 C 696.6 729.7 679.1 683 647.3 646 L 638.6 653.5 L 646.7 661.6 L 661.4 646.9 L 653.3 638.8 L 645.8 647.5 C 682.8 679.4 729.7 696.7 779 696.7 L 779 696.7 C 891.8 696.7 983.6 604.9 983.6 492.1 C 983.6 379.2 891.8 287.5 779 287.4 C 776 287.4 773 288.6 770.9 290.8 S 767.5 295.9 767.5 298.9 H 778.9 V 310.4 C 879 310.6 960.3 391.9 960.5 492 C 960.3 592.1 879 673.4 778.9 673.6 L 778.9 673.6 C 735 673.6 693.7 658.2 660.7 629.9 C 656.1 626 649.3 626.2 645.1 630.5 L 630.4 645.2 C 626.2 649.4 625.9 656.3 629.8 660.8 C 658.1 693.8 673.6 735 673.6 778.8 C 673.6 781.8 674.8 784.8 677 786.9 S 682.1 790.3 685.1 790.3 H 685.1 V 778.8 H 673.6 C 673.4 879 592.1 960.3 492 960.5 C 391.9 960.3 310.5 879 310.4 778.9 C 310.4 735 325.8 693.7 354.1 660.7 C 358 656.1 357.8 649.3 353.5 645.1 L 338.8 630.4 C 334.6 626.2 327.7 625.9 323.2 629.8 C 290.2 658.1 249 673.6 205.2 673.6 C 202.2 673.6 199.2 674.8 197.1 677 S 193.7 682.1 193.7 685.1 V 685.1 H 205.2 V 673.6 C 105 673.4 23.7 592.1 23.5 492 C 23.7 391.9 105 310.6 205.1 310.4 C 249 310.4 290.3 325.8 323.3 354.1 C 327.9 358 334.7 357.7 338.9 353.5 L 353.6 338.8 C 357.8 334.6 358.1 327.7 354.2 323.2 C 325.9 290.3 310.4 249 310.4 205.2 C 310.6 105 391.9 23.7 492 23.5 C 592.1 23.7 673.4 105 673.6 205.1 L 673.6 205.1 C 673.6 249 658.2 290.4 630 323.3 C 626.1 327.9 626.3 334.7 630.6 338.9 L 645.3 353.6 C 649.5 357.8 656.4 358.1 660.9 354.2 C 693.9 325.9 735.1 310.4 778.9 310.4 C 781.9 310.4 784.9 309.2 787 307 S 790.4 301.9 790.4 298.9 V 298.9 H 778.9 V 310.4 V 298.9 Z');fill:#ff847c"
         id="path175" />
      <path
         d="m 450,736.8 c -11.2,11.2 -17.4,26.1 -17.4,42 0,32.7 26.7,59.4 59.4,59.4 32.7,0 59.4,-26.6 59.4,-59.4 v 0 c 0,-15.9 -6.2,-30.8 -17.4,-42 L 331.1,534 373.1,492 576,694.9 c 21.5,21.5 34.8,51.2 34.8,84 v 0 c 0,65.6 -53.2,118.8 -118.8,118.8 -65.7,0 -118.8,-53.2 -118.8,-118.8 0,-32.8 13.3,-62.5 34.8,-84 z"
         style="d:path('M 450 736.8 C 438.8 748 432.6 762.9 432.6 778.8 C 432.6 811.5 459.3 838.2 492 838.2 C 524.7 838.2 551.4 811.6 551.4 778.8 H 551.4 C 551.4 762.9 545.2 748 534 736.8 L 331.1 534 L 373.1 492 L 576 694.9 C 597.5 716.4 610.8 746.1 610.8 778.9 L 610.8 778.9 C 610.8 844.5 557.6 897.7 492 897.7 C 426.3 897.7 373.2 844.5 373.2 778.9 C 373.2 746.1 386.5 716.4 408 694.9 L 450 736.8 Z');fill:#ff847c"
         id="path177" />
      <path
         d="m 450,736.8 -8.1,-8.1 c -13.3,13.3 -20.8,31.3 -20.7,50.1 0,39.1 31.8,70.9 70.9,70.9 39.1,0 70.9,-31.7 70.9,-70.9 0,-3.1 -1.2,-6 -3.4,-8.1 -2.2,-2.2 -5.1,-3.4 -8.1,-3.4 v 0 11.5 H 563 c 0,-18.9 -7.4,-36.8 -20.7,-50.2 v 0 L 347.4,534 373.1,508.2 567.8,703 c 19.5,19.5 31.5,46.2 31.5,75.9 0,5.4 3.7,10 8.9,11.2 5.2,1.2 10.6,-1.4 12.9,-6.2 v 0 l -10.4,-5 h -11.5 c -0.1,59.3 -48.1,107.2 -107.3,107.3 -59.3,-0.1 -107.2,-48.1 -107.3,-107.3 0,-29.7 12,-56.4 31.4,-75.9 l -8.1,-8.1 -8.1,8.1 42,42 8.2,-8.2 -8.1,-8.1 8.1,8.1 8.1,-8.1 -42,-42 c -4.5,-4.5 -11.8,-4.5 -16.3,0 -23.6,23.5 -38.2,56.2 -38.2,92.2 0,72 58.3,130.3 130.3,130.3 72,0 130.3,-58.3 130.3,-130.3 0,-5.4 -3.7,-10 -8.9,-11.2 -5.2,-1.2 -10.6,1.4 -12.9,6.2 v 0 l 10.4,5 h 11.5 c 0,-36 -14.6,-68.6 -38.2,-92.2 L 381.3,483.8 c -2.2,-2.2 -5.1,-3.4 -8.1,-3.4 -3.1,0 -6,1.2 -8.1,3.4 l -42,42 c -4.5,4.5 -4.5,11.8 0,16.3 L 525.9,745 v 0 c 9.1,9.2 14,21.1 14.1,33.9 0,3 1.2,6 3.4,8.1 2.2,2.1 5.1,3.4 8.1,3.4 v 0 -11.5 H 540 c 0,26.4 -21.5,47.8 -47.9,47.9 -26.4,0 -47.9,-21.5 -47.9,-47.9 0,-12.9 4.9,-24.8 14,-33.9 4.5,-4.5 4.5,-11.8 0,-16.3 z"
         style="d:path('M 450 736.8 L 441.9 728.7 C 428.6 742 421.1 760 421.2 778.8 C 421.2 817.9 453 849.7 492.1 849.7 C 531.2 849.7 563 818 563 778.8 C 563 775.7 561.8 772.8 559.6 770.7 C 557.4 768.5 554.5 767.3 551.5 767.3 H 551.5 V 778.8 H 563 C 563 759.9 555.6 742 542.3 728.6 L 542.3 728.6 L 347.4 534 L 373.1 508.2 L 567.8 703 C 587.3 722.5 599.3 749.2 599.3 778.9 C 599.3 784.3 603 788.9 608.2 790.1 C 613.4 791.3 618.8 788.7 621.1 783.9 L 621.1 783.9 L 610.7 778.9 H 599.2 C 599.1 838.2 551.1 886.1 491.9 886.2 C 432.6 886.1 384.7 838.1 384.6 778.9 C 384.6 749.2 396.6 722.5 416 703 L 407.9 694.9 L 399.8 703 L 441.8 745 L 450 736.8 L 441.9 728.7 L 450 736.8 L 458.1 728.7 L 416.1 686.7 C 411.6 682.2 404.3 682.2 399.8 686.7 C 376.2 710.2 361.6 742.9 361.6 778.9 C 361.6 850.9 419.9 909.2 491.9 909.2 C 563.9 909.2 622.2 850.9 622.2 778.9 C 622.2 773.5 618.5 768.9 613.3 767.7 C 608.1 766.5 602.7 769.1 600.4 773.9 L 600.4 773.9 L 610.8 778.9 H 622.3 C 622.3 742.9 607.7 710.3 584.1 686.7 L 381.3 483.8 C 379.1 481.6 376.2 480.4 373.2 480.4 C 370.1 480.4 367.2 481.6 365.1 483.8 L 323.1 525.8 C 318.6 530.3 318.6 537.6 323.1 542.1 L 525.9 745 L 525.9 745 C 535 754.2 539.9 766.1 540 778.9 C 540 781.9 541.2 784.9 543.4 787 S 548.5 790.4 551.5 790.4 H 551.5 V 778.9 L 540 778.9 C 540 805.3 518.5 826.7 492.1 826.8 C 465.7 826.8 444.2 805.3 444.2 778.9 C 444.2 766 449.1 754.1 458.2 745 C 462.7 740.5 462.7 733.2 458.2 728.7 L 450 736.8 Z');fill:#ff847c"
         id="path179" />
      <path
         d="M 491.9,610.8 500,602.7 389.3,492 491.9,389.5 594.5,492 483.8,602.7 l 8.1,8.1 8.1,-8.1 -8.1,8.1 8.1,8.1 118.8,-118.8 c 2.1,-2.1 3.4,-5.1 3.4,-8.1 0,-3 -1.2,-6 -3.4,-8.1 L 500,365 c -4.5,-4.5 -11.8,-4.5 -16.3,0 L 364.9,483.8 c -4.5,4.5 -4.5,11.8 0,16.3 L 483.8,619 c 2.1,2.1 5.1,3.4 8.1,3.4 3,0 6,-1.2 8.1,-3.4 z"
         style="d:path('M 491.9 610.8 L 500 602.7 L 389.3 492 L 491.9 389.5 L 594.5 492 L 483.8 602.7 L 491.9 610.8 L 500 602.7 L 491.9 610.8 L 500 618.9 L 618.8 500.1 C 620.9 498 622.2 495 622.2 492 C 622.2 489 621 486 618.8 483.9 L 500 365 C 495.5 360.5 488.2 360.5 483.7 365 L 364.9 483.8 C 360.4 488.3 360.4 495.6 364.9 500.1 L 483.8 619 C 485.9 621.1 488.9 622.4 491.9 622.4 C 494.9 622.4 497.9 621.2 500 619 L 491.9 610.8 Z');fill:#ff847c"
         id="path181" />
    </g>
  </g>
  <g
     id="SvgjsG2010"
     featurekey="1RRcwp-0"
     transform="matrix(2.7701056,0,0,2.7701056,93.234889,4.1432436)"
     fill="#ff847c"
     style="fill:#ff847c">
    <path
       d="m 5.26,20 c -0.1,0 -0.2,-0.06 -0.24,-0.16 l -4,-12 C 0.98,7.76 1,7.68 1.04,7.6 1.1,7.54 1.18,7.5 1.26,7.5 h 2.8 c 0.1,0 0.2,0.06 0.24,0.18 L 6.68,15.5 9.08,7.68 C 9.12,7.56 9.22,7.5 9.32,7.5 H 12 c 0.08,0 0.16,0.04 0.22,0.1 0.04,0.08 0.06,0.16 0.02,0.24 l -4.06,12 C 8.14,19.94 8.06,20 7.94,20 Z m 9,0 V 8.02 c 0,-0.5 0.1,-0.6 0.26,-0.6 h 8.76 c 0.14,0 0.26,0.1 0.26,0.24 v 2.26 c 0,0.14 -0.12,0.26 -0.26,0.26 h -5.92 v 2.08 h 3.74 c 0.14,0 0.26,0.12 0.26,0.26 v 2.24 c 0,0.14 -0.12,0.26 -0.26,0.26 h -3.74 v 2.14 h 5.9 c 0.14,0 0.26,0.12 0.26,0.26 v 2.24 c 0,0.14 -0.12,0.26 -0.26,0.26 h -8.74 c -0.16,0 -0.26,-0.12 -0.26,0.08 z m 11.54,0 c -0.16,0 -0.26,-0.12 -0.26,-0.26 V 7.76 c 0,-0.14 0.1,-0.26 0.26,-0.26 h 4.88 c 1.52,0 2.72,0.38 3.56,1.16 1.24,1.12 1.66,3.24 1.06,4.8 -0.22,0.56 -0.6,1.08 -1.08,1.46 -0.28,0.22 -0.58,0.38 -0.88,0.54 0.86,1.36 2.16,4.12 2.16,4.12 0.02,0.04 0.06,0.1 0.06,0.16 0,0.14 -0.12,0.26 -0.26,0.26 h -2.96 c -0.08,0 -0.18,-0.06 -0.22,-0.14 l -1.74,-3.82 c -0.62,0.04 -1.1,0.02 -1.74,0.02 v 3.68 c 0,0.14 -0.12,0.26 -0.26,0.26 z m 2.84,-6.72 c 0,0 2.52,0.28 3.4,-0.3 0.34,-0.22 0.54,-0.76 0.54,-1.16 -0.02,-0.44 -0.24,-0.9 -0.6,-1.18 -0.38,-0.32 -1.32,-0.42 -1.8,-0.42 l -1.54,0.04 z M 37.84,20 C 37.7,20 37.58,19.88 37.58,19.74 V 7.76 c 0,-0.14 0.12,-0.26 0.26,-0.26 h 2.6 c 0.14,0 0.26,0.12 0.26,0.26 v 11.98 c 0,0.14 -0.12,0.26 -0.26,0.26 z m 10.2,0.12 c -0.96,0 -1.92,-0.18 -2.84,-0.54 -0.92,-0.34 -1.74,-0.84 -2.42,-1.44 -0.08,-0.08 -0.1,-0.2 -0.06,-0.3 l 0.7,-2.38 c 0.04,-0.08 0.1,-0.14 0.18,-0.14 0.08,-0.02 0.16,0 0.22,0.06 1.06,1 2.26,1.9 3.76,1.98 0.4,0.02 0.84,0.04 1.22,-0.08 1.18,-0.38 0.68,-1.58 -0.2,-1.94 -0.3,-0.12 -0.72,-0.26 -1.26,-0.42 -0.8,-0.22 -1.46,-0.46 -1.96,-0.7 -0.54,-0.24 -1,-0.62 -1.4,-1.12 C 43.6,12.58 43.4,11.9 43.4,11.08 43.4,10.3 43.6,9.62 44,9.04 44.4,8.46 44.96,8 45.66,7.7 c 0.7,-0.3 1.52,-0.46 2.44,-0.46 0.82,0 1.62,0.12 2.42,0.38 0.78,0.24 1.48,0.58 2.1,0.98 0.1,0.08 0.14,0.2 0.08,0.32 l -0.66,2.24 c -0.02,0.08 -0.08,0.12 -0.16,0.14 -0.06,0.02 -0.14,0.02 -0.2,-0.02 -0.9,-0.56 -1.8,-1.24 -2.86,-1.38 -0.7,-0.1 -1.76,-0.06 -2,0.78 -0.3,1.08 1.28,1.36 2,1.58 0.8,0.24 1.46,0.48 1.98,0.72 0.54,0.26 1.02,0.66 1.4,1.16 0.4,0.52 0.6,1.22 0.6,2.06 0,0.82 -0.22,1.52 -0.64,2.12 -0.4,0.6 -0.98,1.04 -1.7,1.36 -0.72,0.28 -1.52,0.44 -2.42,0.44 z M 54.8,20 V 8.02 c 0,-0.5 0.1,-0.6 0.26,-0.6 h 8.76 c 0.14,0 0.26,0.1 0.26,0.24 v 2.26 c 0,0.14 -0.12,0.26 -0.26,0.26 H 57.9 v 2.08 h 3.74 c 0.14,0 0.26,0.12 0.26,0.26 v 2.24 c 0,0.14 -0.12,0.26 -0.26,0.26 H 57.9 v 2.14 h 5.9 c 0.14,0 0.26,0.12 0.26,0.26 v 2.24 c 0,0.14 -0.12,0.26 -0.26,0.26 H 55.06 C 54.9,19.92 54.8,19.8 54.8,20 Z m 11.54,0 C 66.2,20 66.08,19.88 66.08,19.74 V 7.76 c 0,-0.14 0.12,-0.26 0.26,-0.26 h 2.36 c 0.08,0 0.16,0.04 0.22,0.1 l 4.6,7.1 V 7.76 c 0,-0.14 0.12,-0.26 0.26,-0.26 h 2.46 c 0.14,0 0.26,0.12 0.26,0.26 v 11.98 c 0,0.14 -0.12,0.26 -0.26,0.26 h -2.36 c -0.08,0 -0.16,-0.04 -0.22,-0.1 l -4.58,-7.06 v 6.9 c 0,0.14 -0.12,0.26 -0.26,0.26 z m 17.5,0.12 c -0.96,0 -1.92,-0.18 -2.84,-0.54 -0.92,-0.34 -1.74,-0.84 -2.42,-1.44 -0.08,-0.08 -0.1,-0.2 -0.06,-0.3 l 0.7,-2.38 c 0.04,-0.08 0.1,-0.14 0.18,-0.14 0.08,-0.02 0.16,0 0.22,0.06 1.06,1 2.26,1.9 3.76,1.98 0.4,0.02 0.84,0.04 1.22,-0.08 1.18,-0.38 0.68,-1.58 -0.2,-1.94 -0.3,-0.12 -0.72,-0.26 -1.26,-0.42 -0.8,-0.22 -1.46,-0.46 -1.96,-0.7 -0.54,-0.24 -1,-0.62 -1.4,-1.12 C 79.4,12.58 79.2,11.9 79.2,11.08 79.2,10.3 79.4,9.62 79.8,9.04 80.2,8.46 80.76,8 81.46,7.7 c 0.7,-0.3 1.52,-0.46 2.44,-0.46 0.82,0 1.62,0.12 2.42,0.38 0.78,0.24 1.48,0.58 2.1,0.98 0.1,0.08 0.14,0.2 0.08,0.32 l -0.66,2.24 c -0.02,0.08 -0.08,0.12 -0.16,0.14 -0.06,0.02 -0.14,0.02 -0.2,-0.02 -0.9,-0.56 -1.8,-1.24 -2.86,-1.38 -0.7,-0.1 -1.76,-0.06 -2,0.78 -0.3,1.08 1.28,1.36 2,1.58 0.8,0.24 1.46,0.48 1.98,0.72 0.54,0.26 1.02,0.66 1.4,1.16 0.4,0.52 0.6,1.22 0.6,2.06 0,0.82 -0.22,1.52 -0.64,2.12 -0.4,0.6 -0.98,1.04 -1.7,1.36 -0.72,0.28 -1.52,0.44 -2.42,0.44 z M 90.6,20 V 8.02 c 0,-0.5 0.1,-0.6 0.26,-0.6 h 8.76 c 0.14,0 0.26,0.1 0.26,0.24 v 2.26 c 0,0.14 -0.12,0.26 -0.26,0.26 H 93.7 v 2.08 h 3.74 c 0.14,0 0.26,0.12 0.26,0.26 v 2.24 c 0,0.14 -0.12,0.26 -0.26,0.26 H 93.7 v 2.14 h 5.9 c 0.14,0 0.26,0.12 0.26,0.26 v 2.24 c 0,0.14 -0.12,0.26 -0.26,0.26 H 90.86 C 90.7,19.92 90.6,19.8 90.6,20 Z"
       style="d:path('M 5.26 20 C 5.16 20 5.06 19.94 5.02 19.84 L 1.02 7.84 C 0.98 7.76 1 7.68 1.04 7.6 C 1.1 7.54 1.18 7.5 1.26 7.5 L 4.06 7.5 C 4.16 7.5 4.26 7.56 4.3 7.68 L 6.68 15.5 L 9.08 7.68 C 9.12 7.56 9.22 7.5 9.32 7.5 L 12 7.5 C 12.08 7.5 12.16 7.54 12.22 7.6 C 12.26 7.68 12.28 7.76 12.24 7.84 L 8.18 19.84 C 8.14 19.94 8.06 20 7.94 20 L 5.26 20 Z M 14.26 20 L 14.26 8.02 C 14.26 7.52 14.36 7.42 14.52 7.42 L 23.28 7.42 C 23.42 7.42 23.54 7.52 23.54 7.66 L 23.54 9.92 C 23.54 10.06 23.42 10.18 23.28 10.18 L 17.36 10.18 L 17.36 12.26 L 21.1 12.26 C 21.24 12.26 21.36 12.38 21.36 12.52 L 21.36 14.76 C 21.36 14.9 21.24 15.02 21.1 15.02 L 17.36 15.02 L 17.36 17.16 L 23.26 17.16 C 23.4 17.16 23.52 17.28 23.52 17.42 L 23.52 19.66 C 23.52 19.8 23.4 19.92 23.26 19.92 L 14.52 19.92 C 14.36 19.92 14.26 19.8 14.26 20 Z M 25.8 20 C 25.64 20 25.54 19.88 25.54 19.74 L 25.54 7.76 C 25.54 7.62 25.64 7.5 25.8 7.5 L 30.68 7.5 C 32.2 7.5 33.4 7.88 34.24 8.66 C 35.48 9.78 35.9 11.9 35.3 13.46 C 35.08 14.02 34.7 14.54 34.22 14.92 C 33.94 15.14 33.64 15.3 33.34 15.46 C 34.2 16.82 35.5 19.58 35.5 19.58 C 35.52 19.62 35.56 19.68 35.56 19.74 C 35.56 19.88 35.44 20 35.3 20 L 32.34 20 C 32.26 20 32.16 19.94 32.12 19.86 L 30.38 16.04 C 29.76 16.08 29.28 16.06 28.64 16.06 L 28.64 19.74 C 28.64 19.88 28.52 20 28.38 20 L 25.8 20 Z M 28.64 13.28 C 28.64 13.28 31.16 13.56 32.04 12.98 C 32.38 12.76 32.58 12.22 32.58 11.82 C 32.56 11.38 32.34 10.92 31.98 10.64 C 31.6 10.32 30.66 10.22 30.18 10.22 L 28.64 10.26 L 28.64 13.28 Z M 37.84 20 C 37.7 20 37.58 19.88 37.58 19.74 L 37.58 7.76 C 37.58 7.62 37.7 7.5 37.84 7.5 L 40.44 7.5 C 40.58 7.5 40.7 7.62 40.7 7.76 L 40.7 19.74 C 40.7 19.88 40.58 20 40.44 20 L 37.84 20 Z M 48.04 20.12 C 47.08 20.12 46.12 19.94 45.2 19.58 C 44.28 19.24 43.46 18.74 42.78 18.14 C 42.7 18.06 42.68 17.94 42.72 17.84 L 43.42 15.46 C 43.46 15.38 43.52 15.32 43.6 15.32 C 43.68 15.3 43.76 15.32 43.82 15.38 C 44.88 16.38 46.08 17.28 47.58 17.36 C 47.98 17.38 48.42 17.4 48.8 17.28 C 49.98 16.9 49.48 15.7 48.6 15.34 C 48.3 15.22 47.88 15.08 47.34 14.92 C 46.54 14.7 45.88 14.46 45.38 14.22 C 44.84 13.98 44.38 13.6 43.98 13.1 C 43.6 12.58 43.4 11.9 43.4 11.08 C 43.4 10.3 43.6 9.62 44 9.04 S 44.96 8 45.66 7.7 S 47.18 7.24 48.1 7.24 C 48.92 7.24 49.72 7.36 50.52 7.62 C 51.3 7.86 52 8.2 52.62 8.6 C 52.72 8.68 52.76 8.8 52.7 8.92 L 52.04 11.16 C 52.02 11.24 51.96 11.28 51.88 11.3 C 51.82 11.32 51.74 11.32 51.68 11.28 C 50.78 10.72 49.88 10.04 48.82 9.9 C 48.12 9.8 47.06 9.84 46.82 10.68 C 46.52 11.76 48.1 12.04 48.82 12.26 C 49.62 12.5 50.28 12.74 50.8 12.98 C 51.34 13.24 51.82 13.64 52.2 14.14 C 52.6 14.66 52.8 15.36 52.8 16.2 C 52.8 17.02 52.58 17.72 52.16 18.32 C 51.76 18.92 51.18 19.36 50.46 19.68 C 49.74 19.96 48.94 20.12 48.04 20.12 Z M 54.8 20 L 54.8 8.02 C 54.8 7.52 54.9 7.42 55.06 7.42 L 63.82 7.42 C 63.96 7.42 64.08 7.52 64.08 7.66 L 64.08 9.92 C 64.08 10.06 63.96 10.18 63.82 10.18 L 57.9 10.18 L 57.9 12.26 L 61.64 12.26 C 61.78 12.26 61.9 12.38 61.9 12.52 L 61.9 14.76 C 61.9 14.9 61.78 15.02 61.64 15.02 L 57.9 15.02 L 57.9 17.16 L 63.8 17.16 C 63.94 17.16 64.06 17.28 64.06 17.42 L 64.06 19.66 C 64.06 19.8 63.94 19.92 63.8 19.92 L 55.06 19.92 C 54.9 19.92 54.8 19.8 54.8 20 Z M 66.34 20 C 66.2 20 66.08 19.88 66.08 19.74 L 66.08 7.76 C 66.08 7.62 66.2 7.5 66.34 7.5 L 68.7 7.5 C 68.78 7.5 68.86 7.54 68.92 7.6 L 73.52 14.7 L 73.52 7.76 C 73.52 7.62 73.64 7.5 73.78 7.5 L 76.24 7.5 C 76.38 7.5 76.5 7.62 76.5 7.76 L 76.5 19.74 C 76.5 19.88 76.38 20 76.24 20 L 73.88 20 C 73.8 20 73.72 19.96 73.66 19.9 L 69.08 12.84 L 69.08 19.74 C 69.08 19.88 68.96 20 68.82 20 L 66.34 20 Z M 83.84 20.12 C 82.88 20.12 81.92 19.94 81 19.58 C 80.08 19.24 79.26 18.74 78.58 18.14 C 78.5 18.06 78.48 17.94 78.52 17.84 L 79.22 15.46 C 79.26 15.38 79.32 15.32 79.4 15.32 C 79.48 15.3 79.56 15.32 79.62 15.38 C 80.68 16.38 81.88 17.28 83.38 17.36 C 83.78 17.38 84.22 17.4 84.6 17.28 C 85.78 16.9 85.28 15.7 84.4 15.34 C 84.1 15.22 83.68 15.08 83.14 14.92 C 82.34 14.7 81.68 14.46 81.18 14.22 C 80.64 13.98 80.18 13.6 79.78 13.1 C 79.4 12.58 79.2 11.9 79.2 11.08 C 79.2 10.3 79.4 9.62 79.8 9.04 S 80.76 8 81.46 7.7 S 82.98 7.24 83.9 7.24 C 84.72 7.24 85.52 7.36 86.32 7.62 C 87.1 7.86 87.8 8.2 88.42 8.6 C 88.52 8.68 88.56 8.8 88.5 8.92 L 87.84 11.16 C 87.82 11.24 87.76 11.28 87.68 11.3 C 87.62 11.32 87.54 11.32 87.48 11.28 C 86.58 10.72 85.68 10.04 84.62 9.9 C 83.92 9.8 82.86 9.84 82.62 10.68 C 82.32 11.76 83.9 12.04 84.62 12.26 C 85.42 12.5 86.08 12.74 86.6 12.98 C 87.14 13.24 87.62 13.64 88 14.14 C 88.4 14.66 88.6 15.36 88.6 16.2 C 88.6 17.02 88.38 17.72 87.96 18.32 C 87.56 18.92 86.98 19.36 86.26 19.68 C 85.54 19.96 84.74 20.12 83.84 20.12 Z M 90.6 20 L 90.6 8.02 C 90.6 7.52 90.7 7.42 90.86 7.42 L 99.62 7.42 C 99.76 7.42 99.88 7.52 99.88 7.66 L 99.88 9.92 C 99.88 10.06 99.76 10.18 99.62 10.18 L 93.7 10.18 L 93.7 12.26 L 97.44 12.26 C 97.58 12.26 97.7 12.38 97.7 12.52 L 97.7 14.76 C 97.7 14.9 97.58 15.02 97.44 15.02 L 93.7 15.02 L 93.7 17.16 L 99.6 17.16 C 99.74 17.16 99.86 17.28 99.86 17.42 L 99.86 19.66 C 99.86 19.8 99.74 19.92 99.6 19.92 L 90.86 19.92 C 90.7 19.92 90.6 19.8 90.6 20 Z');fill:#ff847c"
       id="path186" />
  </g>
</svg>
