<?xml version="1.0" encoding="UTF-8" standalone="no"?>
<!-- Created with Inkscape (http://www.inkscape.org/) -->

<svg
   width="168.71156mm"
   height="34.705395mm"
   viewBox="0 0 168.71156 34.705395"
   version="1.1"
   id="svg200"
   inkscape:version="1.2.2 (732a01da63, 2022-12-09)"
   sodipodi:docname="01.svg"
   xmlns:inkscape="http://www.inkscape.org/namespaces/inkscape"
   xmlns:sodipodi="http://sodipodi.sourceforge.net/DTD/sodipodi-0.dtd"
   xmlns="http://www.w3.org/2000/svg"
   xmlns:svg="http://www.w3.org/2000/svg">
  <sodipodi:namedview
     id="namedview202"
     pagecolor="#ffffff"
     bordercolor="#000000"
     borderopacity="0.25"
     inkscape:showpageshadow="2"
     inkscape:pageopacity="0.0"
     inkscape:pagecheckerboard="0"
     inkscape:deskcolor="#d1d1d1"
     inkscape:document-units="mm"
     showgrid="false"
     inkscape:zoom="1.6819304"
     inkscape:cx="347.22007"
     inkscape:cy="91.858735"
     inkscape:window-width="1440"
     inkscape:window-height="878"
     inkscape:window-x="-6"
     inkscape:window-y="-6"
     inkscape:window-maximized="1"
     inkscape:current-layer="layer1" />
  <defs
     id="defs197" />
  <g
     inkscape:label="图层 1"
     inkscape:groupmode="layer"
     id="layer1"
     transform="translate(-22.614558,-99.685438)">
    <g
       id="SvgjsG2009"
       transform="matrix(0.26458333,0,0,0.26458333,14.367496,90.57848)">
      <g
         id="g26">
        <path
           class="cls-1"
           d="m 102.35,67.32 c 1.49,-1.49 2.32,-3.48 2.32,-5.6 0,-4.38 -3.56,-7.92 -7.92,-7.92 -4.36,0 -7.92,3.56 -7.92,7.92 0,2.12 0.83,4.11 2.32,5.6 l 27.06,27.07 -5.6,5.6 L 85.55,72.92 C 82.68,70.05 80.91,66.08 80.91,61.7 v 0 c 0,-8.75 7.1,-15.85 15.85,-15.85 8.75,0 15.85,7.1 15.85,15.85 0,4.38 -1.77,8.34 -4.64,11.21 l -5.6,-5.59 z"
           id="path6"
           style="fill:#ff847c;stroke-width:0px" />
        <path
           class="cls-1"
           d="m 102.35,67.32 1.08,1.08 c 1.79,-1.77 2.77,-4.18 2.77,-6.7 0,-5.22 -4.24,-9.46 -9.46,-9.46 -5.22,0 -9.45,4.24 -9.46,9.46 v 0 c 0,2.52 0.99,4.91 2.77,6.7 l 25.98,25.99 -3.43,3.43 -25.99,-25.98 c -2.6,-2.6 -4.19,-6.18 -4.19,-10.13 0,-0.4 -0.16,-0.8 -0.45,-1.08 -0.29,-0.28 -0.68,-0.45 -1.08,-0.45 -0.4,0 -0.8,0.16 -1.08,0.45 -0.28,0.29 -0.45,0.68 -0.45,1.08 v 0 c 0,0.4 0.16,0.8 0.45,1.08 0.29,0.28 0.68,0.45 1.08,0.45 0.4,0 0.8,-0.16 1.08,-0.45 0.28,-0.29 0.45,-0.68 0.45,-1.08 0.01,-7.91 6.42,-14.3 14.32,-14.32 7.91,0.01 14.3,6.42 14.32,14.32 0,3.96 -1.6,7.52 -4.19,10.13 l 1.08,1.08 1.08,-1.08 -5.6,-5.6 -1.08,1.08 1.08,1.08 -1.08,-1.08 -1.08,1.08 5.6,5.6 c 0.28,0.28 0.68,0.45 1.08,0.45 0.4,0 0.8,-0.16 1.08,-0.45 3.15,-3.15 5.1,-7.5 5.1,-12.3 0,-9.61 -7.78,-17.38 -17.38,-17.38 -9.6,0 -17.38,7.78 -17.38,17.38 0,0.4 0.16,0.8 0.45,1.08 0.29,0.28 0.68,0.45 1.08,0.45 0.4,0 0.8,-0.16 1.08,-0.45 0.28,-0.29 0.45,-0.68 0.45,-1.08 v 0 c 0,-0.4 -0.16,-0.8 -0.45,-1.08 -0.29,-0.28 -0.68,-0.45 -1.08,-0.45 -0.4,0 -0.8,0.16 -1.08,0.45 -0.28,0.29 -0.45,0.68 -0.45,1.08 0,4.79 1.95,9.15 5.1,12.3 l 27.07,27.06 c 0.6,0.6 1.57,0.6 2.17,0 l 5.6,-5.6 c 0.28,-0.28 0.45,-0.68 0.45,-1.08 0,-0.4 -0.16,-0.8 -0.45,-1.08 L 92.23,66.24 c -1.21,-1.21 -1.87,-2.8 -1.88,-4.52 v 0 c 0,-3.52 2.87,-6.39 6.39,-6.39 3.52,0 6.39,2.87 6.39,6.39 0,1.72 -0.65,3.31 -1.87,4.52 -0.29,0.29 -0.45,0.68 -0.45,1.08 0,0.4 0.16,0.8 0.45,1.08 z"
           id="path8"
           style="fill:#ff847c;stroke-width:0px" />
        <path
           class="cls-1"
           d="m 129.41,105.6 c 1.49,1.49 3.48,2.32 5.6,2.32 4.36,0 7.92,-3.56 7.92,-7.92 0,-4.36 -3.55,-7.92 -7.91,-7.92 v 0 c -2.12,0 -4.11,0.83 -5.6,2.32 l -27.07,27.06 -5.6,-5.6 27.07,-27.06 c 2.87,-2.87 6.83,-4.64 11.21,-4.64 v 0 c 8.75,0 15.85,7.1 15.85,15.86 0,8.76 -7.1,15.85 -15.85,15.85 -4.38,0 -8.34,-1.77 -11.21,-4.64 l 5.59,-5.62 z"
           id="path10"
           style="fill:#ff847c;stroke-width:0px" />
        <path
           class="cls-1"
           d="m 129.41,105.6 -1.08,1.08 c 1.77,1.79 4.18,2.77 6.7,2.77 5.22,0 9.46,-4.24 9.46,-9.46 0,-5.22 -4.23,-9.46 -9.45,-9.46 -0.41,0 -0.8,0.16 -1.08,0.45 -0.29,0.29 -0.45,0.68 -0.45,1.08 h 1.53 v -1.53 c -2.52,0 -4.91,0.99 -6.7,2.76 v 0 l -25.99,25.99 -3.43,-3.43 25.98,-25.99 c 2.6,-2.59 6.16,-4.19 10.13,-4.19 0.71,0 1.33,-0.49 1.49,-1.19 0.16,-0.69 -0.17,-1.41 -0.81,-1.72 v 0 l -0.68,1.37 v 1.53 c 7.91,0.01 14.3,6.42 14.32,14.33 -0.01,7.91 -6.42,14.3 -14.32,14.32 -3.96,0 -7.52,-1.6 -10.13,-4.19 l -1.08,1.08 1.08,1.08 5.6,-5.6 -1.09,-1.09 -1.08,1.08 1.08,-1.08 -1.08,-1.08 -5.6,5.6 c -0.6,0.6 -0.6,1.57 0,2.17 3.14,3.15 7.5,5.1 12.3,5.1 9.61,0 17.38,-7.78 17.38,-17.38 0,-9.6 -7.78,-17.4 -17.38,-17.4 -0.71,0 -1.33,0.49 -1.49,1.19 -0.16,0.69 0.17,1.41 0.81,1.72 v 0 l 0.68,-1.37 v -1.53 c -4.8,0 -9.15,1.95 -12.3,5.1 l -27.06,27.06 c -0.28,0.28 -0.45,0.68 -0.45,1.08 0,0.4 0.16,0.8 0.45,1.08 l 5.6,5.6 c 0.6,0.6 1.57,0.6 2.17,0 L 130.5,95.47 v 0 c 1.23,-1.21 2.8,-1.87 4.52,-1.87 0.4,0 0.8,-0.16 1.08,-0.45 0.28,-0.29 0.45,-0.68 0.45,-1.08 h -1.53 v 1.53 c 3.52,0 6.39,2.87 6.38,6.39 0,3.52 -2.87,6.39 -6.39,6.39 -1.72,0 -3.31,-0.65 -4.52,-1.87 -0.29,-0.29 -0.68,-0.45 -1.08,-0.45 -0.4,0 -0.8,0.16 -1.08,0.45 l 1.08,1.08 z"
           id="path12"
           style="fill:#ff847c;stroke-width:0px" />
        <path
           class="cls-1"
           d="m 64.07,94.39 c -1.51,-1.49 -3.48,-2.32 -5.6,-2.32 -4.38,0 -7.92,3.56 -7.92,7.92 0,4.36 3.55,7.92 7.92,7.94 v 0 c 2.12,0 4.11,-0.83 5.6,-2.32 l 27.07,-27.07 5.6,5.6 -27.07,27.06 c -2.87,2.87 -6.84,4.64 -11.22,4.64 v 0 c -8.77,0 -15.85,-7.1 -15.85,-15.86 0,-8.76 7.1,-15.85 15.85,-15.85 4.38,0 8.34,1.77 11.21,4.64 z"
           id="path14"
           style="fill:#ff847c;stroke-width:0px" />
        <path
           class="cls-1"
           d="m 64.07,94.39 1.08,-1.08 c -1.77,-1.79 -4.18,-2.77 -6.7,-2.77 -5.22,0 -9.46,4.24 -9.46,9.46 0,5.22 4.23,9.46 9.46,9.47 0.41,0 0.8,-0.16 1.08,-0.45 0.29,-0.29 0.45,-0.68 0.45,-1.08 h -1.53 v 1.53 c 2.52,0 4.91,-0.99 6.7,-2.77 v 0 l 25.99,-25.99 3.43,3.43 -25.98,25.99 v 0 c -2.6,2.59 -6.18,4.19 -10.13,4.2 -0.68,0 -1.27,0.44 -1.47,1.08 -0.2,0.64 0.05,1.35 0.61,1.72 v 0 l 0.85,-1.27 v -1.53 C 50.54,114.3 44.15,107.91 44.13,100 c 0.01,-7.91 6.4,-14.3 14.32,-14.32 3.96,0 7.52,1.6 10.13,4.19 l 1.08,-1.08 -1.08,-1.08 -5.6,5.6 1.08,1.08 1.08,-1.08 -1.08,1.08 1.08,1.08 5.6,-5.6 c 0.29,-0.29 0.45,-0.68 0.45,-1.08 0,-0.4 -0.16,-0.8 -0.45,-1.08 -3.15,-3.14 -7.5,-5.1 -12.3,-5.08 -9.61,0 -17.38,7.78 -17.38,17.38 0,9.6 7.78,17.4 17.38,17.4 0.68,0 1.27,-0.44 1.47,-1.08 0.2,-0.64 -0.05,-1.35 -0.61,-1.72 v 0 l -0.85,1.27 v 1.53 c 4.79,0 9.15,-1.95 12.3,-5.1 v 0 L 97.82,85.25 c 0.6,-0.6 0.6,-1.57 0,-2.17 l -5.6,-5.6 c -0.6,-0.6 -1.57,-0.6 -2.17,0 l -27.06,27.04 v 0 c -1.23,1.21 -2.8,1.87 -4.52,1.88 -0.4,0 -0.8,0.16 -1.08,0.45 -0.28,0.29 -0.45,0.68 -0.45,1.08 h 1.53 v -1.53 c -3.52,0 -6.39,-2.87 -6.39,-6.4 0,-3.53 2.87,-6.38 6.39,-6.39 1.72,0 3.3,0.65 4.52,1.87 0.6,0.6 1.57,0.6 2.17,0 L 64.07,94.4 Z"
           id="path16"
           style="fill:#ff847c;stroke-width:0px" />
        <path
           class="cls-1"
           d="m 135.02,74.23 h -1.53 1.53 V 72.7 c -6.58,0 -12.81,2.33 -17.74,6.58 l 1,1.16 1.08,-1.08 -1.96,-1.96 -1.08,1.08 1.16,1 c 4.24,-4.94 6.56,-11.18 6.56,-17.76 v 0 c 0,-15.05 -12.23,-27.3 -27.3,-27.3 -15.07,0 -27.3,12.25 -27.3,27.3 0,6.58 2.35,12.81 6.58,17.74 l 1.16,-1 -1.08,-1.08 -1.96,1.96 1.08,1.08 1,-1.16 C 71.28,75.02 65.03,72.7 58.45,72.7 43.41,72.7 31.17,84.95 31.17,100 c 0,15.05 12.25,27.3 27.3,27.31 0.4,0 0.8,-0.16 1.08,-0.45 0.28,-0.29 0.45,-0.68 0.45,-1.08 h -1.53 v 1.53 c 6.58,0 12.81,-2.33 17.74,-6.58 l -1,-1.16 -1.08,1.08 1.96,1.96 1.08,-1.08 -1.16,-1 c -4.24,4.94 -6.56,11.19 -6.56,17.76 0,15.05 12.25,27.3 27.3,27.3 15.05,0 27.3,-12.25 27.3,-27.3 0,-0.4 -0.16,-0.8 -0.45,-1.08 -0.29,-0.28 -0.68,-0.45 -1.08,-0.45 v 0 1.53 h 1.53 c 0,-6.58 -2.33,-12.81 -6.58,-17.74 l -1.16,1 1.08,1.08 1.96,-1.96 -1.08,-1.08 -1,1.16 c 4.94,4.26 11.19,6.56 17.77,6.56 v 0 c 15.05,0 27.3,-12.25 27.3,-27.3 0,-15.05 -12.25,-27.3 -27.3,-27.31 -0.4,0 -0.8,0.16 -1.08,0.45 -0.28,0.29 -0.45,0.68 -0.45,1.08 h 1.52 v 1.53 c 13.35,0.03 24.2,10.87 24.23,24.23 -0.03,13.35 -10.87,24.2 -24.23,24.23 v 0 c -5.86,0 -11.37,-2.05 -15.77,-5.83 -0.61,-0.52 -1.52,-0.49 -2.08,0.08 l -1.96,1.96 c -0.56,0.56 -0.6,1.48 -0.08,2.08 3.78,4.4 5.84,9.9 5.84,15.74 0,0.4 0.16,0.8 0.45,1.08 0.29,0.28 0.68,0.45 1.08,0.45 v 0 -1.53 h -1.53 c -0.03,13.37 -10.87,24.21 -24.23,24.24 -13.35,-0.03 -24.21,-10.87 -24.23,-24.23 0,-5.86 2.05,-11.37 5.83,-15.77 0.52,-0.61 0.49,-1.52 -0.08,-2.08 l -1.96,-1.96 c -0.56,-0.56 -1.48,-0.6 -2.08,-0.08 -4.4,3.78 -9.9,5.84 -15.74,5.84 -0.4,0 -0.8,0.16 -1.08,0.45 -0.28,0.29 -0.45,0.68 -0.45,1.08 h 1.53 v -1.53 C 45.12,124.18 34.28,113.34 34.25,99.98 34.28,86.63 45.12,75.78 58.48,75.75 c 5.86,0 11.37,2.05 15.77,5.83 0.61,0.52 1.52,0.48 2.08,-0.08 l 1.96,-1.96 c 0.56,-0.56 0.6,-1.48 0.08,-2.08 -3.78,-4.39 -5.84,-9.9 -5.84,-15.74 0.03,-13.37 10.87,-24.21 24.23,-24.24 13.35,0.03 24.2,10.87 24.23,24.23 v 0 c 0,5.86 -2.05,11.38 -5.82,15.77 -0.52,0.61 -0.49,1.52 0.08,2.08 l 1.96,1.96 c 0.56,0.56 1.48,0.6 2.08,0.08 4.4,-3.78 9.9,-5.84 15.74,-5.84 0.4,0 0.8,-0.16 1.08,-0.45 0.28,-0.29 0.45,-0.68 0.45,-1.08 h -1.53 v 1.53 -1.53 z"
           id="path18"
           style="fill:#ff847c;stroke-width:0px" />
        <path
           class="cls-1"
           d="m 91.14,132.65 c -1.49,1.49 -2.32,3.48 -2.32,5.6 0,4.36 3.56,7.92 7.92,7.92 4.36,0 7.92,-3.55 7.92,-7.92 v 0 c 0,-2.12 -0.83,-4.11 -2.32,-5.6 l -27.07,-27.06 5.6,-5.6 27.07,27.07 c 2.87,2.87 4.64,6.83 4.64,11.21 v 0 c 0,8.75 -7.1,15.85 -15.85,15.85 -8.75,0 -15.85,-7.1 -15.85,-15.85 0,-4.38 1.77,-8.34 4.64,-11.21 l 5.6,5.59 z"
           id="path20"
           style="fill:#ff847c;stroke-width:0px" />
        <path
           class="cls-1"
           d="m 91.14,132.65 -1.08,-1.08 c -1.77,1.77 -2.77,4.18 -2.76,6.68 0,5.22 4.24,9.46 9.46,9.46 5.22,0 9.46,-4.23 9.46,-9.46 0,-0.41 -0.16,-0.8 -0.45,-1.08 -0.29,-0.29 -0.68,-0.45 -1.08,-0.45 v 0 1.53 h 1.53 c 0,-2.52 -0.99,-4.91 -2.76,-6.7 v 0 l -26,-25.96 3.43,-3.44 25.98,25.99 c 2.6,2.6 4.2,6.16 4.2,10.13 0,0.72 0.49,1.33 1.19,1.49 0.7,0.16 1.41,-0.19 1.72,-0.83 v 0 l -1.39,-0.67 h -1.53 c -0.01,7.91 -6.42,14.3 -14.32,14.32 -7.91,-0.01 -14.3,-6.42 -14.32,-14.32 0,-3.96 1.6,-7.52 4.19,-10.13 l -1.08,-1.08 -1.08,1.08 5.6,5.6 1.09,-1.09 -1.08,-1.08 1.08,1.08 1.08,-1.08 -5.6,-5.6 c -0.6,-0.6 -1.57,-0.6 -2.17,0 -3.15,3.14 -5.1,7.5 -5.1,12.3 0,9.61 7.78,17.38 17.38,17.38 9.6,0 17.38,-7.78 17.38,-17.38 0,-0.72 -0.49,-1.33 -1.19,-1.49 -0.7,-0.16 -1.41,0.19 -1.72,0.83 v 0 l 1.39,0.67 h 1.53 c 0,-4.8 -1.95,-9.15 -5.1,-12.3 L 81.96,98.9 c -0.29,-0.29 -0.68,-0.45 -1.08,-0.45 -0.4,0 -0.8,0.16 -1.08,0.45 l -5.6,5.6 c -0.6,0.6 -0.6,1.57 0,2.17 l 27.06,27.07 v 0 c 1.21,1.23 1.87,2.81 1.88,4.52 0,0.4 0.16,0.8 0.45,1.08 0.29,0.28 0.68,0.45 1.08,0.45 v 0 -1.53 h -1.53 c 0,3.52 -2.87,6.38 -6.39,6.39 -3.52,0 -6.39,-2.87 -6.39,-6.39 0,-1.72 0.65,-3.31 1.87,-4.52 0.6,-0.6 0.6,-1.57 0,-2.17 z"
           id="path22"
           style="fill:#ff847c;stroke-width:0px" />
        <path
           class="cls-1"
           d="m 96.73,115.84 1.08,-1.08 -14.77,-14.77 13.69,-13.67 13.69,13.67 -14.77,14.77 1.08,1.08 1.08,-1.08 -1.08,1.08 1.08,1.08 15.85,-15.85 c 0.28,-0.28 0.45,-0.68 0.45,-1.08 0,-0.4 -0.16,-0.8 -0.45,-1.08 L 97.81,83.05 c -0.6,-0.6 -1.57,-0.6 -2.17,0 L 79.79,98.9 c -0.6,0.6 -0.6,1.57 0,2.17 l 15.86,15.86 c 0.28,0.28 0.68,0.45 1.08,0.45 0.4,0 0.8,-0.16 1.08,-0.45 z"
           id="path24"
           style="fill:#ff847c;stroke-width:0px" />
      </g>
    </g>
    <g
       id="SvgjsG2010"
       transform="matrix(0.26458333,0,0,0.26458333,14.367496,90.57848)">
      <path
         class="cls-1"
         d="m 217.01,128.1 c -0.48,0 -0.96,-0.29 -1.15,-0.76 l -19.1,-57.3 c -0.19,-0.38 -0.1,-0.76 0.1,-1.15 0.29,-0.29 0.67,-0.48 1.05,-0.48 h 13.37 c 0.48,0 0.96,0.29 1.15,0.86 l 11.36,37.34 11.46,-37.34 c 0.19,-0.57 0.67,-0.86 1.15,-0.86 h 12.8 c 0.38,0 0.76,0.19 1.05,0.48 0.19,0.38 0.29,0.76 0.1,1.15 l -19.39,57.3 c -0.19,0.48 -0.57,0.76 -1.15,0.76 z m 42.98,0 V 70.89 c 0,-2.39 0.48,-2.87 1.24,-2.87 h 41.83 c 0.67,0 1.24,0.48 1.24,1.15 v 10.79 c 0,0.67 -0.57,1.24 -1.24,1.24 h -28.27 v 9.93 h 17.86 c 0.67,0 1.24,0.57 1.24,1.24 v 10.7 c 0,0.67 -0.57,1.24 -1.24,1.24 h -17.86 v 10.22 h 28.17 c 0.67,0 1.24,0.57 1.24,1.24 v 10.7 c 0,0.67 -0.57,1.24 -1.24,1.24 h -41.73 c -0.76,0 -1.24,-0.57 -1.24,0.38 z m 55.1,0 c -0.76,0 -1.24,-0.57 -1.24,-1.24 V 69.65 c 0,-0.67 0.48,-1.24 1.24,-1.24 h 23.3 c 7.26,0 12.99,1.81 17,5.54 5.92,5.35 7.93,15.47 5.06,22.92 -1.05,2.67 -2.87,5.16 -5.16,6.97 -1.34,1.05 -2.77,1.81 -4.2,2.58 4.11,6.49 10.31,19.67 10.31,19.67 0.1,0.19 0.29,0.48 0.29,0.76 0,0.67 -0.57,1.24 -1.24,1.24 h -14.13 c -0.38,0 -0.86,-0.29 -1.05,-0.67 l -8.31,-18.24 c -2.96,0.19 -5.25,0.1 -8.31,0.1 v 17.57 c 0,0.67 -0.57,1.24 -1.24,1.24 h -12.32 z m 13.56,-32.09 c 0,0 12.03,1.34 16.24,-1.43 1.62,-1.05 2.58,-3.63 2.58,-5.54 -0.1,-2.1 -1.15,-4.3 -2.87,-5.63 -1.81,-1.53 -6.3,-2.01 -8.6,-2.01 l -7.35,0.19 z m 43.93,32.09 c -0.67,0 -1.24,-0.57 -1.24,-1.24 V 69.65 c 0,-0.67 0.57,-1.24 1.24,-1.24 H 385 c 0.67,0 1.24,0.57 1.24,1.24 v 57.21 c 0,0.67 -0.57,1.24 -1.24,1.24 z m 48.71,0.57 c -4.58,0 -9.17,-0.86 -13.56,-2.58 -4.39,-1.62 -8.31,-4.01 -11.56,-6.88 -0.38,-0.38 -0.48,-0.96 -0.29,-1.43 l 3.34,-11.36 c 0.19,-0.38 0.48,-0.67 0.86,-0.67 0.38,-0.1 0.76,0 1.05,0.29 5.06,4.78 10.79,9.07 17.95,9.45 1.91,0.1 4.01,0.19 5.83,-0.38 5.63,-1.81 3.25,-7.54 -0.96,-9.26 -1.43,-0.57 -3.44,-1.24 -6.02,-2.01 -3.82,-1.05 -6.97,-2.2 -9.36,-3.34 -2.58,-1.15 -4.78,-2.96 -6.69,-5.35 -1.81,-2.48 -2.77,-5.73 -2.77,-9.65 0,-3.92 0.96,-6.97 2.87,-9.74 1.91,-2.77 4.58,-4.97 7.93,-6.4 3.35,-1.43 7.26,-2.2 11.65,-2.2 3.92,0 7.74,0.57 11.56,1.81 3.72,1.15 7.07,2.77 10.03,4.68 0.48,0.38 0.67,0.96 0.38,1.53 l -3.15,10.7 c -0.1,0.38 -0.38,0.57 -0.76,0.67 -0.29,0.1 -0.67,0.1 -0.96,-0.1 -4.3,-2.67 -8.6,-5.92 -13.66,-6.59 -3.34,-0.48 -8.4,-0.29 -9.55,3.72 -1.43,5.16 6.11,6.49 9.55,7.54 3.82,1.15 6.97,2.29 9.45,3.44 2.58,1.24 4.87,3.15 6.69,5.54 1.91,2.48 2.87,5.83 2.87,9.84 0,4.01 -1.05,7.26 -3.06,10.12 -1.91,2.87 -4.68,4.97 -8.12,6.49 -3.44,1.34 -7.26,2.1 -11.56,2.1 v 0 z m 32.28,-0.57 V 70.89 c 0,-2.39 0.48,-2.87 1.24,-2.87 h 41.83 c 0.67,0 1.24,0.48 1.24,1.15 v 10.79 c 0,0.67 -0.57,1.24 -1.24,1.24 h -28.27 v 9.93 h 17.86 c 0.67,0 1.24,0.57 1.24,1.24 v 10.7 c 0,0.67 -0.57,1.24 -1.24,1.24 h -17.86 v 10.22 h 28.17 c 0.67,0 1.24,0.57 1.24,1.24 v 10.7 c 0,0.67 -0.57,1.24 -1.24,1.24 h -41.73 c -0.76,0 -1.24,-0.57 -1.24,0.38 v 0 z m 55.1,0 c -0.67,0 -1.24,-0.57 -1.24,-1.24 V 69.65 c 0,-0.67 0.57,-1.24 1.24,-1.24 h 11.27 c 0.38,0 0.76,0.19 1.05,0.48 l 21.97,33.9 V 69.65 c 0,-0.67 0.57,-1.24 1.24,-1.24 h 11.75 c 0.67,0 1.24,0.57 1.24,1.24 v 57.21 c 0,0.67 -0.57,1.24 -1.24,1.24 h -11.27 c -0.38,0 -0.76,-0.19 -1.05,-0.48 L 521.76,93.91 v 32.95 c 0,0.67 -0.57,1.24 -1.24,1.24 h -11.84 v 0 z m 83.56,0.57 c -4.58,0 -9.17,-0.86 -13.56,-2.58 -4.39,-1.62 -8.31,-4.01 -11.56,-6.88 -0.38,-0.38 -0.48,-0.96 -0.29,-1.43 l 3.34,-11.36 c 0.19,-0.38 0.48,-0.67 0.86,-0.67 0.38,-0.1 0.76,0 1.05,0.29 5.06,4.78 10.79,9.07 17.95,9.45 1.91,0.1 4.01,0.19 5.83,-0.38 5.63,-1.81 3.25,-7.54 -0.95,-9.26 -1.43,-0.57 -3.44,-1.24 -6.02,-2.01 -3.82,-1.05 -6.97,-2.2 -9.36,-3.34 -2.58,-1.15 -4.78,-2.96 -6.69,-5.35 -1.81,-2.48 -2.77,-5.73 -2.77,-9.65 0,-3.92 0.95,-6.97 2.87,-9.74 1.92,-2.77 4.58,-4.97 7.93,-6.4 3.35,-1.43 7.26,-2.2 11.65,-2.2 3.92,0 7.74,0.57 11.56,1.81 3.72,1.15 7.07,2.77 10.03,4.68 0.48,0.38 0.67,0.96 0.38,1.53 l -3.15,10.7 c -0.1,0.38 -0.38,0.57 -0.76,0.67 -0.29,0.1 -0.67,0.1 -0.95,-0.1 -4.3,-2.67 -8.6,-5.92 -13.66,-6.59 -3.34,-0.48 -8.4,-0.29 -9.55,3.72 -1.43,5.16 6.11,6.49 9.55,7.54 3.82,1.15 6.97,2.29 9.45,3.44 2.58,1.24 4.87,3.15 6.69,5.54 1.91,2.48 2.87,5.83 2.87,9.84 0,4.01 -1.05,7.26 -3.06,10.12 -1.91,2.87 -4.68,4.97 -8.12,6.49 -3.44,1.34 -7.26,2.1 -11.56,2.1 v 0 z m 32.28,-0.57 V 70.89 c 0,-2.39 0.48,-2.87 1.24,-2.87 h 41.83 c 0.67,0 1.24,0.48 1.24,1.15 v 10.79 c 0,0.67 -0.57,1.24 -1.24,1.24 h -28.27 v 9.93 h 17.86 c 0.67,0 1.24,0.57 1.24,1.24 v 10.7 c 0,0.67 -0.57,1.24 -1.24,1.24 h -17.86 v 10.22 h 28.17 c 0.67,0 1.24,0.57 1.24,1.24 v 10.7 c 0,0.67 -0.57,1.24 -1.24,1.24 h -41.73 c -0.76,0 -1.24,-0.57 -1.24,0.38 v 0 z"
         id="path29"
         style="fill:#ff847c;stroke-width:0px" />
    </g>
  </g>
</svg>
