<svg width="544" height="90" viewBox="0 0 544 90" fill="none" xmlns="http://www.w3.org/2000/svg">
<g clip-path="url(#clip0_2515_23495)">
<path fill-rule="evenodd" clip-rule="evenodd" d="M376.498 0.322266V6.29486H370.832V12.2002H365.219V17.9635H359.448V0.322266H376.498Z" fill="white"/>
<path fill-rule="evenodd" clip-rule="evenodd" d="M376.498 0.322266V6.29486H370.832V12.2002H365.219V17.9635H359.448V0.322266H376.498Z" fill="white"/>
<path fill-rule="evenodd" clip-rule="evenodd" d="M376.498 90.0235V84.0509H370.832V78.1456H365.219V72.3823H359.448V90.0235H376.498Z" fill="white"/>
<path fill-rule="evenodd" clip-rule="evenodd" d="M376.498 90.0235V84.0509H370.832V78.1456H365.219V72.3823H359.448V90.0235H376.498Z" fill="white"/>
<path fill-rule="evenodd" clip-rule="evenodd" d="M526.5 0.149414V6.12201H532.166V12.0273H537.78V17.7906H543.551V0.149414H526.5Z" fill="white"/>
<path fill-rule="evenodd" clip-rule="evenodd" d="M526.5 0.149414V6.12201H532.166V12.0273H537.78V17.7906H543.551V0.149414H526.5Z" fill="white"/>
<path fill-rule="evenodd" clip-rule="evenodd" d="M526.5 89.8507V83.8781H532.166V77.9728H537.78V72.2095H543.551V89.8507H526.5Z" fill="white"/>
<path fill-rule="evenodd" clip-rule="evenodd" d="M526.5 89.8507V83.8781H532.166V77.9728H537.78V72.2095H543.551V89.8507H526.5Z" fill="white"/>
<path d="M67.0523 90.068V70.1244H22.0971L20.191 68.2183V56.8636L22.4559 54.5987H55.3762V34.9392H22L20.1985 33.1377V21.7831L21.7084 20.2731H65.774V0.32959H-3.59473V90.068H67.0523Z" fill="white"/>
<path d="M67.0523 90.068V70.1244H22.0971L20.191 68.2183V56.8636L22.4559 54.5987H55.3762V34.9392H22L20.1985 33.1377V21.7831L21.7084 20.2731H65.774V0.32959H-3.59473V90.068H67.0523Z" fill="white"/>
<path d="M72.5919 0.418945H96.8037V68.2329L98.7846 70.2138H141.243V90.1573H72.5845V0.418945H72.5919Z" fill="white"/>
<path d="M72.5919 0.418945H96.8037V68.2329L98.7846 70.2138H141.243V90.1573H72.5845V0.418945H72.5919Z" fill="white"/>
<path d="M170.411 0.418945H146.199V90.1573H170.411V0.418945Z" fill="white"/>
<path d="M170.411 0.418945H146.199V90.1573H170.411V0.418945Z" fill="white"/>
<path d="M208.466 70.2138V67.5826L250.61 19.2263V0.418945H176.114V20.3625H217.772V22.7694L175.688 71.7761V90.1498H251.746V70.2063H208.458L208.466 70.2138Z" fill="white"/>
<path d="M208.466 70.2138V67.5826L250.61 19.2263V0.418945H176.114V20.3625H217.772V22.7694L175.688 71.7761V90.1498H251.746V70.2063H208.458L208.466 70.2138Z" fill="white"/>
<path fill-rule="evenodd" clip-rule="evenodd" d="M290.475 0.418945H317.535L353.288 90.1573H327.506L321.392 74.2802L319.538 72.7777H287.216L285.153 74.3998L279.083 90.1573H254.729L290.475 0.418945ZM302.263 28.1889L293.428 52.8118L295.296 54.6806H311.502L313.222 52.9613L304.334 28.1889H302.263Z" fill="white"/>
<path fill-rule="evenodd" clip-rule="evenodd" d="M290.475 0.418945H317.535L353.288 90.1573H327.506L321.392 74.2802L319.538 72.7777H287.216L285.153 74.3998L279.083 90.1573H254.729L290.475 0.418945ZM302.263 28.1889L293.428 52.8118L295.296 54.6806H311.502L313.222 52.9613L304.334 28.1889H302.263Z" fill="white"/>
<path fill-rule="evenodd" clip-rule="evenodd" d="M515.187 90.0233H468.109V84.1553H462.428V78.2874H456.74V59.0839H475.315V66.4842H481.004V72.3522H502.3V66.4842H507.981V60.6537H502.3V54.7857H473.798V48.8804H462.428V43.0125H456.74V12.0955H462.428V6.22758H468.109V0.322266H515.187V6.22758H520.876V12.0955H526.602V31.299H507.989V25.3937H502.308V18.0307H481.011V23.8987H475.323V29.7292H481.011V35.5972H509.514V41.4651H520.883V47.3704H526.609V78.3023H520.883V84.1703H515.195V90.0382L515.187 90.0233Z" fill="white"/>
<path fill-rule="evenodd" clip-rule="evenodd" d="M515.187 90.0233H468.109V84.1553H462.428V78.2874H456.74V59.0839H475.315V66.4842H481.004V72.3522H502.3V66.4842H507.981V60.6537H502.3V54.7857H473.798V48.8804H462.428V43.0125H456.74V12.0955H462.428V6.22758H468.109V0.322266H515.187V6.22758H520.876V12.0955H526.602V31.299H507.989V25.3937H502.308V18.0307H481.011V23.8987H475.323V29.7292H481.011V35.5972H509.514V41.4651H520.883V47.3704H526.609V78.3023H520.883V84.1703H515.195V90.0382L515.187 90.0233Z" fill="white"/>
<path fill-rule="evenodd" clip-rule="evenodd" d="M434.454 90.0233H393.057V84.1553H387.369V78.2874H381.68V72.4194H375.992V17.956H381.68V12.088H387.369V6.22011H393.057V0.322266H434.454V6.22758H440.143V12.0955H445.869V17.9635H451.557V72.4344H445.869V78.3023H440.143V84.1703H434.454V90.0382V90.0233ZM421.56 64.9967H427.241V59.0914H432.929V31.299H427.241V25.3937H421.56V19.5258H405.982V25.3937H400.256V31.299H394.567V59.0914H400.256V64.9967H405.982V70.8646H421.56V64.9967Z" fill="white"/>
<path fill-rule="evenodd" clip-rule="evenodd" d="M434.454 90.0233H393.057V84.1553H387.369V78.2874H381.68V72.4194H375.992V17.956H381.68V12.088H387.369V6.22011H393.057V0.322266H434.454V6.22758H440.143V12.0955H445.869V17.9635H451.557V72.4344H445.869V78.3023H440.143V84.1703H434.454V90.0382V90.0233ZM421.56 64.9967H427.241V59.0914H432.929V31.299H427.241V25.3937H421.56V19.5258H405.982V25.3937H400.256V31.299H394.567V59.0914H400.256V64.9967H405.982V70.8646H421.56V64.9967Z" fill="white"/>
</g>
<defs>
<clipPath id="clip0_2515_23495">
<rect width="543.75" height="90" fill="white"/>
</clipPath>
</defs>
</svg>
