<svg width="44" height="32" viewBox="0 0 44 32" fill="none" xmlns="http://www.w3.org/2000/svg">
<path d="M43.8418 9.41698C43.1183 6.83885 40.0801 5.11424 35.7462 4.39162C36.3926 5.15717 36.9777 5.97659 37.4914 6.84381C39.9053 7.53709 41.5392 8.61426 41.9161 9.95697C42.1348 10.7344 41.9473 11.6465 41.3595 12.665C40.7248 13.7656 39.5821 14.9961 37.9903 16.2344C37.9914 16.1553 38.0021 16.0791 38.0021 16C38.0021 7.16306 30.838 0 22.0021 0C13.1662 0 6.00218 7.16306 6.00218 16C6.00218 18.706 6.67985 21.252 7.86547 23.4862C4.7014 22.8417 2.53149 21.622 2.0881 20.042C1.86941 19.2636 2.0569 18.3545 2.6448 17.334C2.9651 16.7803 3.45529 16.1865 4.02372 15.582C4.04714 14.543 4.15062 13.5234 4.34307 12.5342C1.10472 15.1816 -0.546561 18.0566 0.162462 20.582C0.946521 23.373 4.43581 25.167 9.34992 25.7686C12.2766 29.5527 16.8479 32 22.0022 32C29.8479 32 36.3615 26.3486 37.7267 18.8965C42.2277 15.8866 44.6818 12.4063 43.8418 9.41698ZM22.0022 29.9999C18.178 29.9999 14.715 28.4628 12.1887 25.9765C12.5294 25.9872 12.8712 25.995 13.2229 25.995C16.7014 25.995 20.6212 25.5039 24.6623 24.4707C28.6798 23.4434 32.298 22.0059 35.3009 20.3584C33.4679 25.954 28.2111 29.9999 22.0022 29.9999ZM35.8888 17.6982C32.9493 19.5438 29.006 21.2968 24.1681 22.5341C20.4251 23.4912 16.6408 23.9961 13.2229 23.9961C12.2346 23.9961 11.3088 24.0819 10.4143 24C8.89274 21.7597 8.00215 18.9121 8.00215 16C8.00215 8.26853 14.2697 2.00002 22.0021 2.00002C29.7345 2.00002 36.0021 8.26858 36.0021 16C36.0021 16.5761 35.9572 17.1406 35.8888 17.6982ZM14.9999 20C12.7938 20 10.9999 18.2055 10.9999 16C10.9999 13.7944 12.7938 12 14.9999 12C17.206 12 18.9999 13.7944 18.9999 16C18.9999 18.2055 17.206 20 14.9999 20ZM14.9999 14C13.8973 14 12.9999 14.8969 12.9999 15.9999C12.9999 17.1029 13.8974 17.9999 14.9999 17.9999C16.1024 17.9999 16.9999 17.1029 16.9999 15.9999C16.9999 14.8969 16.1024 14 14.9999 14ZM23.4998 8.99997C22.1209 8.99997 20.9999 7.87841 20.9999 6.49998C20.9999 5.12156 22.121 3.99999 23.4998 3.99999C24.8787 3.99999 25.9998 5.12156 25.9998 6.49998C25.9998 7.87841 24.8788 8.99997 23.4998 8.99997ZM23.4998 6.00002C23.2244 6.00002 22.9998 6.22412 22.9998 6.50003C22.9998 6.7759 23.2244 7.00005 23.4998 7.00005C23.7753 7.00005 23.9999 6.77595 23.9999 6.50003C23.9999 6.22412 23.7753 6.00002 23.4998 6.00002ZM28.9998 17.9999C27.8973 17.9999 26.9999 17.103 26.9999 16C26.9999 14.897 27.8973 14 28.9998 14C30.1024 14 30.9998 14.897 30.9998 16C30.9998 17.103 30.1024 17.9999 28.9998 17.9999Z" fill="white"/>
</svg>
