<svg xmlns="http://www.w3.org/2000/svg" width="123" height="24" fill="none"><g clip-path="url(#a)"><path fill="#fff" d="M114.067 11.468a.086.086 0 0 0-.082.062 819.197 819.197 0 0 1-1.623 5.649.54.54 0 0 1-.519.388h-2.683a.541.541 0 0 1-.518-.384l-3.008-9.853a.542.542 0 0 1 .518-.7h2.089c.243 0 .456.162.522.397l1.756 6.305a.087.087 0 0 0 .082.062.085.085 0 0 0 .082-.062c.363-1.282.642-2.246.839-2.892l.979-3.417a.542.542 0 0 1 .52-.393h2.307a.54.54 0 0 1 .521.395l1.776 6.307a.087.087 0 0 0 .082.062.085.085 0 0 0 .082-.062 754.1 754.1 0 0 0 1.778-6.303.541.541 0 0 1 .522-.399h1.894c.364 0 .625.352.519.7l-3.008 9.853a.542.542 0 0 1-.518.384h-2.64a.542.542 0 0 1-.52-.388l-1.665-5.65a.084.084 0 0 0-.081-.061h-.003Zm-8.643.942c0 1.099-.236 2.054-.707 2.868a4.603 4.603 0 0 1-1.905 1.862c-.813.428-1.726.642-2.739.642h-.343c-1.013 0-1.926-.214-2.74-.642a4.742 4.742 0 0 1-1.926-1.862c-.457-.814-.685-1.77-.685-2.869v-.62c0-1.1.228-2.055.685-2.868a4.743 4.743 0 0 1 1.927-1.862c.813-.428 1.726-.643 2.74-.643h.342c1.012 0 1.926.215 2.739.643a4.604 4.604 0 0 1 1.905 1.862c.471.813.707 1.769.707 2.868v.62Zm-3.168-1.178c0-.87-.222-1.533-.664-1.99-.428-.457-.991-.685-1.69-.685-.7 0-1.27.228-1.713.685-.428.457-.642 1.12-.642 1.99v1.734c0 .87.214 1.534.642 1.99.442.458 1.014.686 1.713.686.698 0 1.262-.228 1.69-.685.442-.457.664-1.12.664-1.991v-1.734Zm-13.928-8.92a6.17 6.17 0 0 0-.808-.197 7.05 7.05 0 0 0-1.242-.128c-2.197 0-3.296 1.07-3.296 3.21v1.434h-.725a.542.542 0 0 0-.541.542v1.013c0 .3.242.542.541.542h.725v8.298c0 .299.243.542.542.542h2.042a.542.542 0 0 0 .541-.542V9.312c0-.298.242-.541.542-.541h1.464a.542.542 0 0 0 .541-.542V7.172a.542.542 0 0 0-.541-.542h-1.464a.542.542 0 0 1-.542-.541v-.7c0-.514.115-.856.343-1.027.243-.172.535-.257.877-.257.158 0 .372.029.642.085.345.054.685-.202.685-.551v-.854a.49.49 0 0 0-.326-.474Zm4.209-.154h-2.042a.54.54 0 0 0-.541.542v14.326c0 .3.242.542.541.542h2.042a.542.542 0 0 0 .541-.542V2.7a.54.54 0 0 0-.541-.542ZM60.883 7.06c.097.457.709.6 1.067.301.754-.629 1.644-.944 2.673-.944 1.113 0 2.026.3 2.74.9.727.599 1.091 1.469 1.091 2.61v7.1a.541.541 0 0 1-.542.54h-2.041a.542.542 0 0 1-.542-.54v-6.415c0-.557-.164-1.014-.492-1.37a1.522 1.522 0 0 0-1.22-.557c-.557 0-1.034.214-1.434.642-.4.415-.6.92-.6 1.52v6.18a.542.542 0 0 1-.541.54H59a.542.542 0 0 1-.541-.54V7.172A.54.54 0 0 1 59 6.631h1.353c.255 0 .477.18.53.429Z"/><path fill="#fff" fill-rule="evenodd" d="M53.527 9.006c.314.3.471.693.471 1.177v.213l-.002.023c-.01.119-.02.234-.02.332 0 .088-.072.16-.16.161-1.544.007-2.81.1-3.798.278-1.028.186-1.833.55-2.419 1.092-.57.527-.856 1.298-.856 2.312 0 1.24.35 2.082 1.049 2.525.699.442 1.591.664 2.675.664 1.084 0 1.955-.31 2.759-.931.284-.22.75-.034.75.326 0 .216.175.39.392.39h2.191a.542.542 0 0 0 .542-.541V9.928c0-1.141-.364-2.012-1.092-2.61-.569-.478-1.187-.666-2.004-.756a8.707 8.707 0 0 0-1.655-.144h-.45c-.941 0-1.776.136-2.504.407-.727.27-1.298.65-1.712 1.134-.4.485-.6 1.035-.6 1.648 0 .225.207.386.432.386h2.458a.17.17 0 0 0 .171-.172c0-.17.072-.356.214-.556.158-.2.378-.364.664-.492.286-.143.628-.214 1.027-.214.685 0 1.178.15 1.477.45v-.003Zm-.094 3.669a.53.53 0 0 1 .543.533v.32a.52.52 0 0 1-.006.077 2.13 2.13 0 0 1-.357.88 2.513 2.513 0 0 1-.92.856c-.372.2-.742.3-1.113.3-.543 0-.95-.094-1.22-.279-.257-.2-.386-.535-.386-1.006 0-.6.329-1.027.985-1.284.574-.232 1.398-.365 2.474-.398Z" clip-rule="evenodd"/><path fill="#fff" d="M38.039 17.567a.542.542 0 0 1-.542-.542V3.426c0-.298.243-.541.542-.541h2.234c.299 0 .542.243.542.541v10.86c0 .298.242.541.541.541h3.755c.252 0 .472.175.528.42l.378 1.657a.542.542 0 0 1-.528.662h-7.45ZM80.21 15.94c-.528-.57-1.293-.856-2.291-.856h-3.81c-.457 0-.8-.078-1.027-.235a.776.776 0 0 1-.321-.664c0-.228.114-.436.342-.62.243-.186.578-.279 1.006-.279h1.477c.842 0 1.584-.15 2.226-.45.656-.313 1.162-.727 1.52-1.24a3.033 3.033 0 0 0 .535-1.734c0-.387-.071-.75-.21-1.088h.638a.542.542 0 0 0 .541-.542V7.219a.541.541 0 0 0-.541-.542h-3.301l-.017-.005c-.528-.17-1.127-.256-1.798-.256h-.342c-1.527 0-2.69.32-3.489.963-.784.642-1.177 1.47-1.177 2.483a2.96 2.96 0 0 0 .656 1.858c.29.362.206 1.034-.146 1.334-.105.09-.204.19-.296.296a1.995 1.995 0 0 0-.514 1.37 2.11 2.11 0 0 0 .315 1.127c.225.363.186.946-.123 1.24a3.133 3.133 0 0 0-.364.416c-.3.414-.45.877-.45 1.39 0 .843.293 1.5.878 1.97.6.485 1.334.728 2.205.728h4.516c.77 0 1.47-.15 2.097-.45.643-.285 1.149-.692 1.52-1.22.371-.527.556-1.12.556-1.776 0-.913-.27-1.648-.813-2.205h.001Zm-6.508-7.233c.357-.286.806-.428 1.349-.428.542 0 1.013.142 1.37.428.356.27.535.656.535 1.155 0 .5-.179.892-.535 1.178-.357.27-.814.406-1.37.406-.557 0-.992-.136-1.349-.406-.356-.286-.535-.678-.535-1.178 0-.5.179-.885.535-1.155Zm4.024 10.615c-.27.228-.592.342-.963.342h-3.596c-.313 0-.585-.107-.813-.32-.228-.215-.343-.464-.343-.75s.115-.535.343-.749c.228-.2.5-.3.813-.3h3.724c.372 0 .671.093.9.279.228.2.342.442.342.727 0 .3-.136.557-.407.77Z"/><path fill="#7528FC" d="M22.368 12.667h3.772c.74 0 1.339.6 1.339 1.34v2.224c0 .74-.6 1.34-1.34 1.34H22.85a1.34 1.34 0 0 0-.947.392l-5.645 5.644a1.34 1.34 0 0 1-.947.393h-2.714a1.34 1.34 0 0 1-1.34-1.305l-.058-2.271a1.34 1.34 0 0 1 1.34-1.375h2.335c.356 0 .696-.141.947-.392l5.598-5.598a1.34 1.34 0 0 1 .947-.393l.002.001Z"/><path fill="#FF3276" d="M11.17 0h3.771c.74 0 1.34.6 1.34 1.34v2.224c0 .74-.6 1.34-1.34 1.34h-3.29a1.34 1.34 0 0 0-.947.392L5.06 10.941a1.34 1.34 0 0 1-.947.393H1.398A1.34 1.34 0 0 1 .06 10.029L0 7.757a1.339 1.339 0 0 1 1.34-1.373h2.335c.356 0 .696-.142.948-.393L10.22.394A1.34 1.34 0 0 1 11.168 0h.001Z"/><path fill="#F480FF" d="M22.368 2.866h3.772c.74 0 1.339.6 1.339 1.34V6.43c0 .74-.6 1.34-1.34 1.34H22.85a1.34 1.34 0 0 0-.947.392l-5.645 5.645a1.34 1.34 0 0 1-.948.393h-3.297a1.34 1.34 0 0 0-.927.372L4.75 20.645c-.25.24-.582.372-.927.372h-2.31c-.74 0-1.339-.6-1.339-1.339v-2.286c0-.74.6-1.34 1.34-1.34h2.292c.356 0 .697-.14.948-.392l6.018-6.018a1.34 1.34 0 0 1 .947-.393h3.156c.355 0 .696-.141.947-.393L21.42 3.26a1.34 1.34 0 0 1 .947-.393h.002Z"/></g><defs><clipPath id="a"><path fill="#fff" d="M0 0h122.526v24H0z"/></clipPath></defs></svg>