<svg width="37" height="32" viewBox="0 0 37 32" fill="none" xmlns="http://www.w3.org/2000/svg">
<path d="M36.1287 14.4635C36.1274 13.5669 35.8604 12.6908 35.3614 11.9459C34.8625 11.2009 34.1539 10.6206 33.3253 10.2781C32.4967 9.93565 31.5852 9.84643 30.7059 10.0217C29.8266 10.197 29.019 10.629 28.3851 11.263C25.8478 9.62575 22.6076 8.58303 19.0494 8.42039C19.0487 7.67789 19.2153 6.94479 19.5369 6.27557C19.8586 5.60634 20.3269 5.01822 20.9071 4.55491C21.4862 4.08825 22.1632 3.7583 22.8875 3.58965C23.6119 3.421 24.365 3.41799 25.0906 3.58086L25.293 3.62603C25.293 3.67663 25.2858 3.72723 25.2858 3.77783C25.2839 4.68959 25.611 5.57143 26.2071 6.26132C26.8033 6.9512 27.6283 7.40278 28.5307 7.53308C29.4331 7.66337 30.3522 7.46364 31.1192 6.97057C31.8861 6.4775 32.4494 5.72422 32.7054 4.84915C32.9614 3.97408 32.8931 3.036 32.5129 2.20729C32.1327 1.37858 31.4662 0.714901 30.6359 0.338215C29.8056 -0.0384712 28.8672 -0.102864 27.9933 0.15687C27.1193 0.416604 26.3684 0.983016 25.8786 1.75203L25.5153 1.6707C24.5034 1.4435 23.4532 1.4477 22.4432 1.68301C21.4331 1.91832 20.4892 2.37865 19.6819 3.02968C18.8729 3.67585 18.2199 4.49607 17.7716 5.42936C17.3232 6.36265 17.091 7.385 17.0922 8.42039C13.5322 8.58303 10.2938 9.62575 7.75833 11.2612C7.29729 10.7958 6.74091 10.4358 6.12747 10.206C5.51403 9.97613 4.85808 9.88187 4.20474 9.9297C3.5514 9.97754 2.91617 10.1663 2.34275 10.4831C1.76932 10.7998 1.27131 11.237 0.882966 11.7646C0.49462 12.2921 0.225156 12.8976 0.0931075 13.5392C-0.0389413 14.1808 -0.0304408 14.8435 0.118024 15.4815C0.26649 16.1196 0.551396 16.7179 0.953148 17.2353C1.3549 17.7527 1.86396 18.177 2.44532 18.4789C2.33509 19.0392 2.27726 19.6138 2.27726 20.1994C2.27726 26.7159 9.34681 32 18.0717 32C26.793 32 33.8643 26.7159 33.8643 20.1994C33.8643 19.6138 33.8065 19.041 33.6963 18.4789C34.4297 18.0955 35.0441 17.5186 35.4729 16.8107C35.9017 16.1028 36.1285 15.2911 36.1287 14.4635ZM29.0718 1.949C29.5471 1.96394 29.998 2.16327 30.3289 2.50478C30.6599 2.84629 30.8449 3.30318 30.8449 3.77874C30.8449 4.25429 30.6599 4.71119 30.3289 5.0527C29.998 5.39421 29.5471 5.59353 29.0718 5.60847C28.5965 5.59353 28.1456 5.39421 27.8147 5.0527C27.4837 4.71119 27.2987 4.25429 27.2987 3.77874C27.2987 3.30318 27.4837 2.84629 27.8147 2.50478C28.1456 2.16327 28.5965 1.96394 29.0718 1.949ZM1.96824 14.4653C1.96824 13.0431 3.12481 11.8865 4.54703 11.8865C5.15604 11.8865 5.71445 12.0997 6.15539 12.4539C4.77654 13.6376 3.70852 15.0291 3.0453 16.5561C2.71241 16.3184 2.44104 16.0047 2.25372 15.6411C2.0664 15.2774 1.96853 14.8743 1.96824 14.4653ZM28.067 26.9761C25.4195 28.955 21.8685 30.0447 18.0699 30.0447C14.2713 30.0447 10.7202 28.955 8.07458 26.9761C5.59879 25.1274 4.2344 22.7203 4.2344 20.1994C4.2344 17.6802 5.59698 15.2749 8.07458 13.4226C10.7202 11.4455 14.2695 10.3576 18.0699 10.3576C21.8703 10.3576 25.4195 11.4455 28.067 13.4244C30.5428 15.2749 31.9072 17.6802 31.9072 20.2012C31.9072 22.7203 30.5428 25.1274 28.067 26.9779V26.9761ZM33.0945 16.5543C32.4313 15.0273 31.3632 13.6376 29.9844 12.4539C30.4253 12.0997 30.9856 11.8865 31.5928 11.8865C33.015 11.8865 34.1715 13.0431 34.1715 14.4653C34.1715 15.3255 33.7469 16.0881 33.0945 16.5543Z" fill="white"/>
<path d="M10.236 17.4435C10.236 17.9913 10.4536 18.5167 10.841 18.9041C11.2284 19.2914 11.7538 19.5091 12.3016 19.5091C12.8494 19.5091 13.3748 19.2914 13.7622 18.9041C14.1495 18.5167 14.3672 17.9913 14.3672 17.4435C14.3672 16.8957 14.1495 16.3703 13.7622 15.9829C13.3748 15.5956 12.8494 15.3779 12.3016 15.3779C11.7538 15.3779 11.2284 15.5956 10.841 15.9829C10.4536 16.3703 10.236 16.8957 10.236 17.4435Z" fill="white"/>
<path d="M21.7728 17.4435C21.7728 17.7147 21.8262 17.9833 21.93 18.234C22.0338 18.4846 22.186 18.7123 22.3778 18.9041C22.5696 19.0959 22.7973 19.248 23.0479 19.3518C23.2985 19.4556 23.5671 19.5091 23.8383 19.5091C24.1096 19.5091 24.3782 19.4556 24.6288 19.3518C24.8794 19.248 25.1071 19.0959 25.2989 18.9041C25.4907 18.7123 25.6429 18.4846 25.7467 18.234C25.8505 17.9833 25.9039 17.7147 25.9039 17.4435C25.9039 17.1722 25.8505 16.9036 25.7467 16.653C25.6429 16.4024 25.4907 16.1747 25.2989 15.9829C25.1071 15.7911 24.8794 15.639 24.6288 15.5352C24.3782 15.4314 24.1096 15.3779 23.8383 15.3779C23.5671 15.3779 23.2985 15.4314 23.0479 15.5352C22.7973 15.639 22.5696 15.7911 22.3778 15.9829C22.186 16.1747 22.0338 16.4024 21.93 16.653C21.8262 16.9036 21.7728 17.1722 21.7728 17.4435Z" fill="white"/>
<path d="M22.9636 22.4622C21.5114 23.7869 19.6162 24.5204 17.6506 24.5187C16.5666 24.5233 15.4935 24.3024 14.4995 23.8699C13.5055 23.4375 12.6123 22.803 11.8768 22.0068C11.6999 21.8168 11.4548 21.7048 11.1954 21.6955C10.9359 21.6861 10.6834 21.7803 10.4934 21.9571C10.3033 22.134 10.1913 22.3791 10.182 22.6385C10.1727 22.8979 10.2668 23.1504 10.4437 23.3405C11.3667 24.3281 12.4825 25.1159 13.7221 25.6552C14.9617 26.1945 16.2988 26.4738 17.6506 26.4759C20.1044 26.4781 22.4703 25.5621 24.2828 23.9079C24.3777 23.8213 24.4547 23.7168 24.5092 23.6005C24.5638 23.4841 24.5949 23.3582 24.6007 23.2298C24.6066 23.1014 24.5871 22.9731 24.5434 22.8523C24.4997 22.7314 24.4327 22.6204 24.346 22.5255C24.2594 22.4305 24.155 22.3536 24.0386 22.299C23.9222 22.2445 23.7963 22.2134 23.6679 22.2075C23.5395 22.2016 23.4113 22.2211 23.2904 22.2648C23.1696 22.3085 23.0585 22.3756 22.9636 22.4622Z" fill="white"/>
</svg>
