<svg width="32" height="32" viewBox="0 0 32 32" fill="none" xmlns="http://www.w3.org/2000/svg">
<rect width="32" height="32" rx="8" fill="white"/>
<mask id="mask0_87_6826" style="mask-type:luminance" maskUnits="userSpaceOnUse" x="6" y="10" width="21" height="12">
<path d="M25.5567 10.898C24.958 10.898 24.5589 13.1929 24.5589 15.9867C24.5589 18.7805 25.0578 21.0754 25.5567 21.0754C26.1553 21.0754 26.5544 18.7805 26.5544 15.9867C26.5544 13.1929 26.1553 10.898 25.5567 10.898ZM21.0666 10.3991C19.4701 10.3991 18.173 12.8936 18.173 15.9867C18.173 19.0799 19.4701 21.5743 21.0666 21.5743C22.6631 21.5743 23.9602 19.0799 23.9602 15.9867C23.9602 12.8936 22.6631 10.3991 21.0666 10.3991ZM11.7872 10C8.59425 10 6 12.694 6 15.9867C6 19.2794 8.59425 21.9735 11.7872 21.9735C14.9801 21.9735 17.5743 19.2794 17.5743 15.9867C17.5743 12.694 14.9801 10 11.7872 10Z" fill="white"/>
</mask>
<g mask="url(#mask0_87_6826)">
<mask id="mask1_87_6826" style="mask-type:luminance" maskUnits="userSpaceOnUse" x="-26" y="-882" width="1597" height="999">
<path d="M1570.53 -881.025H-25.9287V116.763H1570.53V-881.025Z" fill="white"/>
</mask>
<g mask="url(#mask1_87_6826)">
<path d="M27.552 9.00195H5.00195V22.971H27.552V9.00195Z" fill="black"/>
</g>
</g>
</svg>
