<svg width="33" height="32" viewBox="0 0 33 32" fill="none" xmlns="http://www.w3.org/2000/svg">
<g clip-path="url(#clip0_87_6873)">
<path d="M16.2822 3.63845e-08C19.6091 -0.000252164 22.802 1.31061 25.1691 3.64846C27.5361 5.98632 28.8864 9.1628 28.9273 12.4894H29.5115C30.3211 12.4894 31.0977 12.8111 31.6702 13.3836C32.2427 13.9562 32.5644 14.7327 32.5644 15.5424V16.5488C32.5645 16.9498 32.4856 17.3468 32.3322 17.7173C32.1789 18.0877 31.954 18.4243 31.6705 18.7078C31.387 18.9913 31.0504 19.2162 30.6799 19.3696C30.3095 19.523 29.9124 19.6018 29.5115 19.6017L22.4552 19.6007L27.8781 30.4762C27.9928 30.7083 28.0147 30.9754 27.9393 31.2231C27.8639 31.4707 27.697 31.6804 27.4725 31.8093C27.248 31.9382 26.9828 31.9767 26.7309 31.917C26.479 31.8572 26.2593 31.7037 26.1166 31.4877L26.0576 31.3839L20.2316 19.7055H12.3338L6.50778 31.3839C6.39101 31.6146 6.1908 31.7922 5.94782 31.8806C5.70484 31.969 5.43732 31.9616 5.1996 31.8599C4.96187 31.7582 4.77178 31.5698 4.66792 31.3331C4.56406 31.0963 4.55423 30.8288 4.64042 30.5851L4.68723 30.4762L10.1092 19.6007L3.05291 19.6017C2.24323 19.6017 1.46671 19.2801 0.894176 18.7075C0.321645 18.135 0 17.3585 0 16.5488L0 15.5424C0 14.7327 0.321645 13.9562 0.894176 13.3836C1.46671 12.8111 2.24323 12.4894 3.05291 12.4894L3.63907 12.4884L3.6411 12.3338C3.72236 9.03502 5.08984 5.89871 7.45164 3.59433C9.81344 1.28996 12.9824 6.15566e-05 16.2822 3.63845e-08ZM16.2822 27.3184C16.5316 27.3187 16.7724 27.4104 16.9588 27.5762C17.1452 27.742 17.2643 27.9703 17.2937 28.218L17.2998 28.3361V29.2815C17.2993 29.5408 17.1998 29.7901 17.0216 29.9785C16.8435 30.1669 16.6002 30.2802 16.3413 30.2952C16.0825 30.3103 15.8276 30.226 15.6288 30.0595C15.43 29.8931 15.3023 29.657 15.2717 29.3995L15.2645 29.2815V28.3361C15.2648 28.0663 15.3721 27.8076 15.5629 27.6168C15.7537 27.426 16.0124 27.3187 16.2822 27.3184ZM21.8395 26.5501L21.8863 26.66L22.0715 27.1658C22.1609 27.4099 22.1536 27.6789 22.0509 27.9177C21.9483 28.1564 21.7582 28.3469 21.5196 28.45C21.281 28.5531 21.012 28.561 20.7678 28.4721C20.5236 28.3831 20.3226 28.2041 20.2062 27.9718L20.1594 27.8619L19.9742 27.3561C19.8848 27.112 19.8921 26.843 19.9948 26.6042C20.0974 26.3655 20.2875 26.175 20.5261 26.0719C20.7647 25.9688 21.0337 25.9609 21.2779 26.0498C21.5221 26.1388 21.723 26.3178 21.8395 26.5501ZM11.77 26.0515C12.0234 26.1442 12.2297 26.3336 12.3436 26.5781C12.4574 26.8227 12.4697 27.1025 12.3775 27.3561L12.1923 27.8619C12.1485 27.9899 12.0796 28.1079 11.9896 28.2089C11.8997 28.31 11.7905 28.3921 11.6684 28.4505C11.5464 28.5088 11.4139 28.5423 11.2788 28.5488C11.1436 28.5554 11.0085 28.5349 10.8814 28.4886C10.7542 28.4423 10.6376 28.3712 10.5383 28.2793C10.439 28.1874 10.359 28.0766 10.303 27.9534C10.2471 27.8303 10.2162 27.6972 10.2123 27.5619C10.2083 27.4267 10.2314 27.292 10.2802 27.1658L10.4654 26.66C10.511 26.5344 10.581 26.419 10.6713 26.3204C10.7616 26.2218 10.8704 26.142 10.9916 26.0855C11.1127 26.0289 11.2438 25.9969 11.3774 25.991C11.511 25.9852 11.6444 26.0057 11.77 26.0515ZM16.2822 21.1689C16.5318 21.1687 16.7727 21.2602 16.9592 21.4261C17.1457 21.5919 17.2648 21.8206 17.2937 22.0685L17.2998 22.1865V25.2832C17.2998 25.5426 17.2007 25.7923 17.0227 25.9811C16.8447 26.1699 16.6013 26.2836 16.3423 26.2989C16.0833 26.3142 15.8282 26.2301 15.6292 26.0636C15.4302 25.8971 15.3023 25.6609 15.2717 25.4033L15.2645 25.2832V22.1865C15.2645 21.9166 15.3718 21.6578 15.5626 21.4669C15.7534 21.2761 16.0123 21.1689 16.2822 21.1689ZM19.7737 21.3755L19.8236 21.4843L20.6082 23.541C20.701 23.7835 20.6976 24.0523 20.5987 24.2923C20.4998 24.5324 20.3129 24.7256 20.0762 24.8323C19.8395 24.9391 19.571 24.9514 19.3256 24.8666C19.0802 24.7819 18.8764 24.6065 18.7561 24.3765L18.7072 24.2676L17.9216 22.2109C17.8288 21.9684 17.8322 21.6997 17.9311 21.4596C18.03 21.2195 18.2169 21.0263 18.4536 20.9196C18.6902 20.8128 18.9588 20.8006 19.2042 20.8853C19.4496 20.97 19.6533 21.1454 19.7737 21.3755ZM13.8419 20.8972C13.9668 20.9448 14.0811 21.0165 14.1782 21.1083C14.2754 21.2001 14.3535 21.3102 14.4081 21.4322C14.4628 21.5542 14.4928 21.6858 14.4966 21.8194C14.5003 21.953 14.4778 22.086 14.4301 22.2109L13.6445 24.2676C13.5968 24.3925 13.5249 24.5067 13.4331 24.6038C13.3412 24.701 13.2311 24.779 13.109 24.8336C12.987 24.8882 12.8554 24.9182 12.7218 24.9219C12.5881 24.9256 12.4551 24.903 12.3302 24.8553C12.2053 24.8075 12.091 24.7357 11.9939 24.6438C11.8968 24.552 11.8187 24.4419 11.7642 24.3198C11.7096 24.1978 11.6796 24.0662 11.6759 23.9326C11.6722 23.7989 11.6948 23.6659 11.7425 23.541L12.5281 21.4843C12.6245 21.2323 12.817 21.0288 13.0634 20.9187C13.3098 20.8086 13.5898 20.8008 13.8419 20.8972ZM29.5115 14.5247H3.05291C2.78302 14.5247 2.52418 14.6319 2.33333 14.8228C2.14249 15.0136 2.03527 15.2725 2.03527 15.5424V16.5488C2.03527 16.8187 2.14249 17.0775 2.33333 17.2684C2.52418 17.4592 2.78302 17.5664 3.05291 17.5664H29.5115C29.7813 17.5664 30.0402 17.4592 30.231 17.2684C30.4219 17.0775 30.5291 16.8187 30.5291 16.5488V15.5424C30.5291 15.2725 30.4219 15.0136 30.231 14.8228C30.0402 14.6319 29.7813 14.5247 29.5115 14.5247ZM16.8521 4.13873C16.5822 4.13873 16.3233 4.24594 16.1325 4.43679C15.9416 4.62763 15.8344 4.88647 15.8344 5.15636C15.8344 5.42626 15.9416 5.6851 16.1325 5.87594C16.3233 6.06678 16.5822 6.174 16.8521 6.174C17.5487 6.17318 18.2385 6.31106 18.8813 6.57959C19.5241 6.84813 20.1069 7.24196 20.5959 7.73811C20.6893 7.83568 20.8011 7.9137 20.925 7.96762C21.0488 8.02153 21.1821 8.05026 21.3171 8.05214C21.4522 8.05401 21.5862 8.02899 21.7115 7.97853C21.8367 7.92807 21.9507 7.85319 22.0467 7.75824C22.1428 7.66329 22.2189 7.55017 22.2708 7.42549C22.3227 7.3008 22.3492 7.16704 22.3489 7.03199C22.3485 6.89695 22.3213 6.76333 22.2688 6.63891C22.2163 6.51449 22.1395 6.40177 22.043 6.30731C21.365 5.61939 20.5568 5.07335 19.6656 4.70103C18.7744 4.32871 17.8179 4.13756 16.8521 4.13873Z" fill="white"/>
</g>
<defs>
<clipPath id="clip0_87_6873">
<rect width="32.5938" height="32" fill="white"/>
</clipPath>
</defs>
</svg>
