<svg width="28" height="18" viewBox="0 0 28 18" fill="none" xmlns="http://www.w3.org/2000/svg">
<g clip-path="url(#clip0_952_599)">
<path d="M26.9195 18C18.1483 18 9.82726 18 1.06421 18C3.99887 14.9103 6.68795 12.0712 9.52847 9.08008C10.5026 9.90181 11.4767 10.6126 12.3158 11.4631C13.4332 12.5971 14.4114 12.7738 15.582 11.5288C16.3719 10.6907 17.3338 10.0169 18.443 9.08419C21.1893 11.9767 23.9193 14.8445 26.9195 18Z" fill="black"/>
<path d="M1.43652 0C9.90897 0 17.9435 0 26.5346 0C22.1469 3.72244 18.1358 7.12851 13.9856 10.6537C9.88032 7.1696 5.84465 3.73887 1.43652 0Z" fill="black"/>
<path d="M19.72 7.98722C22.4786 5.64529 25.1145 3.41018 28.0041 0.961426C28.0041 6.24926 28.0041 11.2248 28.0041 16.6976C25.1145 13.6613 22.4827 10.892 19.72 7.98722Z" fill="black"/>
<path d="M0 0.998291C2.90191 3.45116 5.48458 5.63696 8.25961 7.983C5.54188 10.8426 2.91419 13.6118 0 16.6769C0 11.3233 0 6.39295 0 0.998291Z" fill="black"/>
</g>
<defs>
<clipPath id="clip0_952_599">
<rect width="28" height="18" fill="white"/>
</clipPath>
</defs>
</svg>
