<svg width="32" height="32" viewBox="0 0 32 32" fill="none" xmlns="http://www.w3.org/2000/svg">
<rect width="32" height="32" rx="8" fill="white"/>
<mask id="mask0_87_6837" style="mask-type:luminance" maskUnits="userSpaceOnUse" x="8" y="10" width="16" height="12">
<path d="M23.7281 10H8V22H23.7281V10Z" fill="white"/>
</mask>
<g mask="url(#mask0_87_6837)">
<path d="M21.332 11.014C21.327 11.0057 21.3203 10.999 21.3119 10.9956C20.2922 10.5275 19.2155 10.1948 18.1105 10.0026C18.0904 9.99925 18.0687 10.0093 18.0587 10.0277C17.9115 10.2935 17.7795 10.566 17.6608 10.8468C16.4688 10.6663 15.2568 10.6663 14.0648 10.8468C13.9444 10.566 13.8107 10.2935 13.6602 10.0277C13.6502 10.0093 13.6285 10.0009 13.6084 10.0026C12.5034 10.1932 11.4267 10.5275 10.407 10.9956C10.3986 10.999 10.3902 11.0057 10.3852 11.014C8.34732 14.0583 7.78895 17.0291 8.06312 19.9614C8.06479 19.9764 8.07148 19.9898 8.08318 19.9981C9.27014 20.8775 10.5992 21.5479 12.0102 21.9825C12.0302 21.9892 12.052 21.9809 12.0654 21.9641C12.3679 21.5512 12.6371 21.1149 12.8695 20.6585C12.8762 20.6451 12.8762 20.6317 12.8711 20.6184C12.8661 20.605 12.8561 20.595 12.8427 20.5899C12.4198 20.4278 12.0085 20.2322 11.6156 20.0048C11.6006 19.9965 11.5922 19.9814 11.5906 19.9647C11.5889 19.948 11.5973 19.9313 11.6106 19.9212C11.6925 19.8594 11.7745 19.7958 11.8547 19.7306C11.8698 19.7189 11.8881 19.7156 11.9049 19.724C14.4794 20.8992 17.2662 20.8992 19.809 19.724C19.8257 19.7156 19.8458 19.7189 19.8608 19.7306C19.9411 19.7958 20.0213 19.861 20.1049 19.9229C20.1183 19.9329 20.1266 19.9497 20.125 19.9664C20.1233 19.9831 20.1149 19.9981 20.0999 20.0065C19.7087 20.2355 19.2974 20.4311 18.8728 20.5899C18.8594 20.595 18.8494 20.605 18.8444 20.6184C18.8394 20.6317 18.8394 20.6468 18.8461 20.6585C19.0818 21.1132 19.3493 21.5495 19.6485 21.9641C19.6602 21.9809 19.6836 21.9892 19.7037 21.9825C21.118 21.5495 22.4487 20.8792 23.6374 19.9981C23.6491 19.9898 23.6558 19.9764 23.6574 19.9614C23.9868 16.571 23.1091 13.6253 21.332 11.014ZM13.254 18.1759C12.4783 18.1759 11.8397 17.4654 11.8397 16.5911C11.8397 15.7184 12.4666 15.0062 13.254 15.0062C14.0481 15.0062 14.68 15.7234 14.6666 16.5911C14.6666 17.4654 14.0414 18.1759 13.254 18.1759ZM18.48 18.1759C17.7042 18.1759 17.0673 17.4654 17.0673 16.5911C17.0673 15.7184 17.6942 15.0062 18.48 15.0062C19.274 15.0062 19.906 15.7234 19.8943 16.5911C19.8926 17.4654 19.274 18.1759 18.48 18.1759Z" fill="black"/>
</g>
</svg>
