<svg width="59" height="24" viewBox="0 0 59 24" fill="none" xmlns="http://www.w3.org/2000/svg">
    <path
        d="M58.2277 10.1741V14.8337H58.9364V16H57.1004V15.3359C56.6875 15.8661 56.1127 16.1339 55.3705 16.1395C54.7678 16.1395 54.2656 15.9554 53.8694 15.5815C53.4676 15.2132 53.2667 14.75 53.2667 14.192C53.2667 13.6451 53.4676 13.1875 53.8694 12.8136C54.2656 12.4453 54.7678 12.2612 55.3705 12.2612H56.9498V11.385H53.6797V10.1741H58.2277ZM55.5882 15.0402C56.414 15.0402 56.9498 14.6663 56.9498 14.1027V13.3382H55.5882C55.3036 13.3382 55.0692 13.4163 54.8739 13.5781C54.6786 13.74 54.5837 13.9408 54.5837 14.1808C54.5837 14.4263 54.6786 14.6328 54.8683 14.7946C55.058 14.9565 55.298 15.0402 55.5882 15.0402Z"
        fill="#41FF66" />
    <path
        d="M45.4041 8.11496H48.4621C49.6116 8.11496 50.5659 8.48884 51.3304 9.23661C52.0949 9.98996 52.4744 10.9275 52.4744 12.0547C52.4744 13.1875 52.0949 14.125 51.336 14.8728C50.5715 15.6261 49.6172 16 48.4621 16H45.4041V8.11496ZM46.7601 14.7221H48.4398C49.1931 14.7221 49.8237 14.4654 50.3259 13.9576C50.8282 13.4498 51.0793 12.8192 51.0793 12.0547C51.0793 11.2958 50.8282 10.6596 50.3259 10.1518C49.8237 9.64398 49.1931 9.39286 48.4398 9.39286H46.7601V14.7221Z"
        fill="#41FF66" />
    <path
        d="M44.1763 13.0982C44.1763 13.2824 44.1651 13.4386 44.1428 13.5781H39.3158C39.4107 14.0078 39.6116 14.3482 39.9296 14.5993C40.2477 14.856 40.6272 14.9844 41.068 14.9844C41.7991 14.9844 42.4073 14.6551 42.6696 14.1473H44.0591C43.847 14.7444 43.4732 15.2243 42.9319 15.5871C42.3906 15.9554 41.7656 16.1395 41.0569 16.1395C40.1696 16.1395 39.433 15.8493 38.8415 15.2634C38.2444 14.6775 37.9486 13.952 37.9486 13.0815C37.9486 12.2165 38.2444 11.4911 38.8415 10.9051C39.433 10.3248 40.1696 10.0346 41.0569 10.0346C41.9497 10.0346 42.6919 10.3248 43.289 10.9051C43.8805 11.4911 44.1763 12.2221 44.1763 13.0982ZM42.1562 11.5525C41.8381 11.3125 41.4754 11.1897 41.0569 11.1897C40.6383 11.1897 40.27 11.3125 39.9575 11.5525C39.645 11.798 39.433 12.1217 39.327 12.5234H42.7924C42.6863 12.1161 42.4743 11.7924 42.1562 11.5525Z"
        fill="#41FF66" />
    <path
        d="M37.4241 16H35.7946L34.0759 13.0647H33.356V16H32V8.11496H34.6618C35.404 8.11496 36.0179 8.35492 36.5145 8.82925C37.0112 9.30358 37.2567 9.90067 37.2567 10.615C37.2567 11.1618 37.1004 11.6417 36.7935 12.0603C36.4866 12.4788 36.0737 12.7634 35.5658 12.9252L37.4241 16ZM34.6395 9.39286H33.356V11.8761H34.6395C34.9911 11.8761 35.2812 11.7589 35.51 11.519C35.7388 11.2846 35.8504 10.9888 35.8504 10.6261C35.8504 10.269 35.7388 9.97322 35.51 9.73884C35.2812 9.51005 34.9911 9.39286 34.6395 9.39286Z"
        fill="#41FF66" />
    <path
        d="M10.1327 12.1655C10.1327 13.3046 11.055 14.2286 12.1921 14.2286C13.3292 14.2286 14.2515 13.3046 14.2515 12.1655C14.2515 11.8111 14.1631 11.4693 13.9988 11.1782L22.2618 6.93806C22.4008 6.87477 22.5019 6.7482 22.5398 6.60897C22.5903 6.46974 22.565 6.30519 22.5019 6.17862C21.7691 4.78633 20.5688 3.44466 18.9389 2.1916C17.2838 0.925876 15.2118 0.191757 12.7859 0.00189858C12.6217 -0.0107586 12.4701 0.0398703 12.3564 0.153785C12.2426 0.255043 12.1795 0.40693 12.1795 0.571474V10.1024C11.0424 10.115 10.1327 11.039 10.1327 12.1655ZM12.1921 13.1021C11.6741 13.1021 11.2572 12.6844 11.2572 12.1655C11.2572 11.6465 11.6741 11.2289 12.1921 11.2289C12.7101 11.2289 13.1271 11.6465 13.1271 12.1655C13.1271 12.6844 12.7101 13.1021 12.1921 13.1021ZM13.2913 1.17902C15.237 1.41951 16.9048 2.05237 18.244 3.0776C19.5454 4.07752 20.5435 5.11542 21.2131 6.20394L13.2787 10.2796V1.17902H13.2913Z"
        fill="#00D062" />
    <path
        d="M5.9254 8.39366C4.91464 10.0771 4.62405 12.0389 5.10416 13.9375C5.57164 15.8361 6.75928 17.4309 8.42703 18.4435C9.57677 19.1396 10.8655 19.494 12.1795 19.494C12.7733 19.494 13.3671 19.4181 13.9609 19.2789C17.8776 18.3043 20.2655 14.3172 19.2927 10.3935C19.2169 10.0897 18.9137 9.91253 18.6104 9.98847C18.3072 10.0644 18.1303 10.3682 18.2061 10.672C19.0274 13.9882 17.0058 17.355 13.6956 18.1903C12.091 18.5954 10.4233 18.3422 9.00822 17.4942C7.59315 16.6462 6.5824 15.2665 6.19073 13.6591C5.78642 12.0516 6.03911 10.3808 6.88562 8.96324C7.73213 7.54563 9.09666 6.54571 10.6886 6.15333C10.9918 6.07739 11.1687 5.77362 11.0929 5.46984C11.0171 5.16607 10.7139 4.98887 10.4106 5.06481C8.52811 5.53313 6.92353 6.71025 5.9254 8.39366Z"
        fill="white" />
    <path
        d="M23.778 9.68467C23.7148 9.3809 23.4242 9.17838 23.121 9.24167C22.8178 9.30496 22.6156 9.59607 22.6788 9.89985C23.8285 15.7981 19.9624 21.5318 14.0747 22.671C8.18701 23.8228 2.46359 19.9497 1.32649 14.0514C0.77057 11.1909 1.36439 8.29238 2.98161 5.87485C4.61145 3.45732 7.07518 1.82454 9.91794 1.26762C10.2212 1.20433 10.4233 0.913218 10.3601 0.609444C10.297 0.305671 10.0064 0.103155 9.70315 0.166441C6.5698 0.786645 3.85338 2.59663 2.05929 5.25464C0.26519 7.91266 -0.391803 11.1149 0.227287 14.2666C0.833742 17.4182 2.64047 20.1395 5.29372 21.9369C7.3026 23.2912 9.61471 24 11.9774 24C12.7481 24 13.5188 23.924 14.2895 23.7722C20.7836 22.5191 25.0414 16.1905 23.778 9.68467Z"
        fill="white" />
    <path
        d="M16.6899 5.7736C16.6899 5.97166 16.7685 6.1616 16.9083 6.30165C17.0481 6.4417 17.2377 6.52038 17.4354 6.52038C17.6331 6.52038 17.8227 6.4417 17.9625 6.30165C18.1023 6.1616 18.1808 5.97166 18.1808 5.7736C18.1808 5.57554 18.1023 5.3856 17.9625 5.24555C17.8227 5.1055 17.6331 5.02682 17.4354 5.02682C17.2377 5.02682 17.0481 5.1055 16.9083 5.24555C16.7685 5.3856 16.6899 5.57554 16.6899 5.7736Z"
        fill="#00D062" />
</svg>
    